{"glyphs":{"0":{"ha":669,"x_min":31,"x_max":639,"o":"m 639 571 q 623 700 639 636 q 574 815 607 764 q 487 897 540 865 q 358 928 433 928 q 212 893 274 928 q 110 801 150 858 q 50 672 69 744 q 31 525 31 600 q 51 372 31 451 q 112 226 71 293 q 215 116 153 160 q 364 69 278 72 q 483 158 432 103 q 569 281 535 213 q 622 423 604 349 q 639 571 639 497 m 526 532 q 519 424 526 485 q 494 306 511 364 q 447 197 476 247 q 372 122 417 147 q 262 191 307 143 q 189 300 217 239 q 148 429 161 361 q 135 558 135 497 q 142 655 135 600 q 169 759 149 710 q 224 842 189 808 q 313 875 258 875 q 418 840 376 875 q 484 754 460 806 q 517 643 508 703 q 526 532 526 583 z "},"1":{"ha":457,"x_min":31,"x_max":426,"o":"m 426 94 q 406 109 419 106 q 375 114 392 113 q 347 118 361 115 q 321 129 332 121 q 302 153 310 138 q 294 197 294 169 q 294 356 294 278 q 296 514 294 435 q 297 671 297 593 q 297 828 297 749 l 297 849 q 297 889 297 869 q 294 929 297 910 q 288 935 294 938 q 156 858 221 900 q 33 768 92 817 q 32 761 31 765 q 38 758 33 757 q 74 769 57 761 q 107 783 90 776 q 142 798 125 792 q 169 804 158 804 q 199 792 186 804 l 199 190 q 191 149 199 164 q 169 127 183 135 q 138 116 156 119 q 103 111 121 113 q 78 108 89 110 q 56 104 67 107 q 52 98 51 103 q 57 93 53 93 q 240 88 149 89 q 422 86 331 86 l 426 94 z "},"2":{"ha":596,"x_min":26,"x_max":564,"o":"m 564 285 l 553 286 q 518 222 538 246 q 473 185 499 199 q 415 167 447 171 q 344 163 383 163 l 172 163 q 157 164 164 163 q 283 269 218 206 q 403 406 349 332 q 492 559 457 479 q 526 715 526 639 q 500 820 526 779 q 431 884 474 861 q 337 915 389 907 q 233 924 285 924 q 153 913 192 924 q 79 886 114 901 q 76 881 76 886 q 74 860 75 869 q 74 839 74 850 q 77 776 74 807 q 90 715 81 746 q 97 712 92 711 q 101 717 101 713 q 111 777 101 749 q 138 828 121 806 q 182 863 156 850 q 242 875 208 875 q 315 859 281 875 q 373 816 349 843 q 411 754 397 789 q 425 681 425 719 q 399 567 425 625 q 333 451 374 508 q 242 338 292 394 q 146 231 193 282 q 85 163 114 196 q 32 100 56 129 q 36 92 26 92 l 496 92 q 527 117 514 92 q 549 174 540 142 q 560 239 557 207 q 564 285 564 271 z "},"3":{"ha":564,"x_min":29,"x_max":533,"o":"m 533 368 q 518 441 533 408 q 478 498 503 474 q 419 540 453 522 q 350 569 386 558 q 394 608 372 588 q 432 651 415 628 q 459 701 449 675 q 469 758 469 728 q 456 828 469 796 q 419 883 443 860 q 364 920 396 907 q 294 933 332 933 q 183 919 240 933 q 78 886 126 906 q 75 881 75 886 q 71 841 72 861 q 69 801 69 821 q 71 771 69 786 q 76 740 72 756 q 83 737 78 736 q 88 742 88 738 q 133 838 94 800 q 231 876 171 876 q 289 866 261 876 q 338 837 317 856 q 371 792 358 818 q 383 735 383 765 q 371 668 383 694 q 340 623 358 642 q 297 592 321 604 q 253 571 274 581 q 217 553 233 563 q 192 533 201 544 q 194 525 188 528 q 274 499 233 517 q 350 453 315 481 q 407 390 385 426 q 429 310 429 353 q 408 235 429 269 q 356 174 388 200 q 284 134 324 149 q 207 119 244 119 q 144 132 171 119 q 101 167 118 144 q 76 217 85 189 q 67 279 68 246 q 63 284 67 283 q 56 281 58 285 q 36 214 43 249 q 32 143 29 179 l 33 113 q 36 108 33 111 q 188 57 101 57 q 307 83 246 57 q 419 151 368 108 q 501 251 469 194 q 533 368 533 307 z "},"4":{"ha":674,"x_min":29,"x_max":643,"o":"m 643 389 q 640 413 643 399 q 635 417 640 419 q 568 404 601 404 q 540 406 553 404 q 514 414 528 407 l 514 929 q 510 935 514 933 q 504 933 507 936 q 435 858 476 904 q 345 758 393 813 q 247 645 297 704 q 154 530 197 586 q 78 425 111 474 q 32 343 46 376 q 36 335 29 335 l 418 335 q 417 298 417 315 q 418 260 418 281 l 418 219 q 416 178 418 200 q 406 138 414 157 q 381 115 397 119 q 347 108 364 110 q 324 106 333 107 q 307 94 314 106 q 311 86 301 86 l 410 86 l 617 88 q 622 91 621 88 q 619 97 624 94 q 581 115 597 110 q 554 122 565 119 q 534 127 542 124 q 522 140 526 131 q 515 169 517 150 q 513 225 513 189 q 513 250 513 238 q 514 275 513 263 q 516 306 515 290 q 515 336 517 321 l 539 336 q 574 337 556 336 q 607 342 592 338 q 633 358 622 347 q 643 389 643 368 m 415 408 l 125 408 q 270 591 200 501 q 415 774 340 681 l 415 408 z "},"5":{"ha":522,"x_min":31,"x_max":492,"o":"m 492 904 l 486 910 q 325 901 406 903 q 163 900 244 900 l 126 900 q 121 896 121 900 q 100 747 107 821 q 90 596 93 672 q 96 590 90 590 q 200 563 146 583 q 299 507 254 542 q 372 425 343 472 q 400 319 400 378 q 381 243 400 278 q 330 182 361 208 q 260 141 299 156 q 182 126 221 126 q 123 138 147 126 q 83 171 99 150 q 60 219 67 192 q 54 279 53 247 q 49 284 54 283 q 43 281 44 285 q 33 219 35 250 q 31 158 31 189 q 31 126 31 143 q 32 96 31 111 q 36 90 32 90 q 165 69 99 69 q 283 90 226 69 q 384 147 340 110 q 453 235 428 183 q 479 353 479 288 q 453 485 479 425 q 383 588 428 544 q 278 656 339 632 q 149 681 218 681 l 149 686 q 152 758 149 722 q 160 828 156 793 l 397 828 q 437 810 428 828 q 451 775 446 793 q 465 744 456 756 q 471 742 468 742 q 475 746 474 742 q 492 904 492 821 z "},"6":{"ha":600,"x_min":31,"x_max":569,"o":"m 569 324 q 558 412 569 367 q 522 494 546 457 q 460 554 497 531 q 374 578 424 578 q 289 558 329 578 q 214 514 249 539 q 213 506 211 511 q 218 504 214 501 q 260 518 238 513 q 304 524 282 524 q 383 503 350 524 q 439 451 417 483 q 472 379 461 419 q 483 299 483 339 q 476 235 483 268 q 454 174 469 201 q 414 130 439 147 q 353 113 389 113 q 260 135 303 113 q 188 194 218 158 q 140 277 157 231 q 122 371 122 324 q 151 528 122 449 q 226 678 179 607 q 333 811 272 750 q 456 914 393 872 q 457 922 460 917 q 450 924 454 926 q 297 833 372 890 q 162 701 221 775 q 67 542 103 628 q 31 367 31 456 q 56 245 31 303 q 126 144 82 188 q 228 76 169 101 q 350 50 286 50 q 447 74 406 50 q 515 138 488 99 q 556 226 542 178 q 569 324 569 275 z "},"7":{"ha":568,"x_min":31,"x_max":538,"o":"m 538 892 l 532 900 q 468 899 500 900 q 403 897 436 899 q 334 895 368 896 q 264 894 300 894 q 158 899 211 894 q 54 914 104 903 q 47 910 47 917 q 44 883 46 896 q 40 857 43 871 q 33 804 36 831 q 31 750 31 778 q 31 729 31 739 q 39 708 32 719 q 45 706 42 706 q 49 711 49 707 q 74 776 53 751 q 128 814 96 800 q 201 832 161 828 q 282 836 240 836 q 325 835 301 836 q 367 833 349 835 q 404 831 386 832 q 438 831 422 831 q 450 829 446 831 q 351 656 404 751 q 251 461 299 561 q 165 262 203 361 q 115 78 128 163 q 122 71 115 68 q 152 80 135 74 q 186 94 169 86 q 217 114 203 103 q 236 138 231 125 q 256 197 247 167 q 271 258 264 226 q 283 306 276 283 q 296 353 289 329 q 405 626 343 490 q 538 892 467 761 z "},"8":{"ha":582,"x_min":31,"x_max":551,"o":"m 551 336 q 504 472 551 418 q 382 551 457 526 q 475 631 436 579 q 514 746 514 683 q 497 819 514 785 q 451 881 479 854 q 387 922 424 907 q 313 936 350 936 q 224 916 267 936 q 149 863 182 896 q 95 786 115 829 q 75 697 75 743 q 115 590 75 633 q 211 526 154 547 q 141 489 174 511 q 84 437 108 467 q 45 372 60 407 q 31 294 31 336 q 53 201 31 243 q 113 128 76 158 q 195 83 149 99 q 290 67 242 67 q 391 89 343 67 q 474 149 439 111 q 531 235 510 186 q 551 336 551 283 m 428 739 q 403 647 428 690 q 336 579 378 603 q 271 594 301 579 q 217 635 240 610 q 181 694 194 661 q 168 761 168 728 q 179 813 168 790 q 210 851 190 835 q 253 875 229 867 q 306 883 278 883 q 358 871 335 883 q 396 838 381 858 q 419 792 411 818 q 428 739 428 765 m 454 304 q 444 242 454 275 q 416 183 435 210 q 372 140 397 157 q 313 122 346 122 q 235 140 269 122 q 176 186 200 157 q 140 253 153 215 q 126 332 126 292 q 169 455 126 406 q 286 504 211 504 q 356 487 325 504 q 410 441 388 469 q 443 376 432 413 q 454 304 454 340 z "},"9":{"ha":583,"x_min":31,"x_max":553,"o":"m 553 621 q 529 741 553 682 q 464 846 506 800 q 366 920 422 892 q 246 949 310 949 q 153 924 193 949 q 85 859 113 899 q 44 771 58 819 q 31 676 31 722 q 42 595 31 636 q 77 522 54 554 q 135 470 100 490 q 217 450 171 450 q 308 469 264 450 q 389 518 351 489 q 390 525 393 521 q 383 526 388 529 q 341 507 364 515 q 293 499 318 499 q 217 521 250 499 q 160 577 183 543 q 126 653 138 611 q 114 732 114 694 q 142 833 114 793 q 236 872 171 872 q 329 854 289 872 q 397 804 369 836 q 439 729 425 772 q 453 636 453 686 q 427 476 453 557 q 357 322 401 396 q 254 185 313 247 q 131 81 196 122 q 129 73 126 78 q 136 71 132 68 q 290 160 215 104 q 424 289 365 217 q 517 446 482 361 q 553 621 553 531 z "},"\u0007":{"ha":388,"x_min":31,"x_max":357,"o":"m 357 960 q 344 997 357 981 q 307 1014 331 1014 q 275 999 288 1014 q 263 965 263 985 q 278 929 263 947 q 313 911 293 911 q 344 926 332 911 q 357 960 357 940 m 125 960 q 111 997 125 981 q 75 1014 97 1014 q 43 999 56 1014 q 31 965 31 985 q 46 929 31 947 q 81 911 61 911 q 113 926 100 911 q 125 960 125 940 z "},"\u0005":{"ha":375,"x_min":31,"x_max":344,"o":"m 344 1161 q 278 1106 317 1129 q 196 1083 240 1083 q 124 1106 156 1083 q 71 1161 92 1129 q 44 1140 57 1153 q 31 1108 31 1126 q 47 1078 31 1090 q 84 1060 63 1067 q 128 1052 106 1054 q 163 1050 150 1050 q 219 1056 189 1050 q 276 1074 250 1061 q 322 1108 303 1086 q 344 1161 340 1129 z "},"\u0006":{"ha":172,"x_min":31,"x_max":142,"o":"m 142 1092 q 125 1137 142 1117 q 82 1157 108 1157 q 45 1144 60 1157 q 31 1108 31 1132 q 44 1062 31 1086 q 83 1038 57 1038 q 124 1053 106 1038 q 142 1092 142 1068 z "},"\b":{"ha":279,"x_min":31,"x_max":249,"o":"m 249 1118 q 223 1176 249 1154 q 163 1197 197 1197 q 115 1189 139 1197 q 73 1166 92 1181 q 42 1130 54 1151 q 31 1083 31 1108 q 47 1036 31 1056 q 92 1017 64 1017 q 119 1022 106 1017 q 144 1033 133 1026 q 181 1040 163 1035 q 215 1056 200 1046 q 239 1082 229 1067 q 249 1118 249 1097 m 196 1106 q 181 1071 196 1088 q 149 1054 167 1054 q 100 1072 122 1054 q 78 1117 78 1089 q 97 1154 78 1139 q 136 1169 115 1169 q 178 1149 161 1169 q 196 1106 196 1129 z "},"\n":{"ha":374,"x_min":31,"x_max":343,"o":"m 343 1147 q 324 1178 336 1163 q 293 1194 313 1194 q 260 1174 278 1194 q 224 1128 242 1154 q 192 1077 207 1103 q 167 1039 176 1051 q 206 1069 183 1051 q 251 1103 228 1086 q 299 1133 275 1121 q 343 1147 324 1146 m 194 1158 q 176 1178 188 1169 q 151 1188 165 1188 q 113 1169 129 1188 q 82 1127 96 1151 q 56 1078 68 1103 q 31 1039 43 1053 q 110 1101 71 1069 q 194 1158 150 1132 z "},"\u000b":{"ha":272,"x_min":31,"x_max":242,"o":"m 242 -126 q 192 -129 215 -133 q 150 -111 168 -125 q 121 -76 132 -97 q 110 -28 110 -56 q 133 40 110 10 q 188 85 156 69 q 135 67 163 78 q 84 39 107 56 q 46 -1 61 22 q 31 -54 31 -24 q 40 -97 31 -78 q 66 -129 50 -115 q 103 -151 82 -143 q 146 -158 124 -158 q 197 -150 172 -158 q 242 -126 221 -142 z "},"\f":{"ha":358,"x_min":31,"x_max":328,"o":"m 328 1171 q 291 1152 310 1165 q 254 1126 272 1139 q 219 1101 236 1113 q 188 1088 203 1090 q 124 1126 151 1099 q 68 1176 97 1154 q 47 1156 57 1167 q 31 1133 38 1146 q 104 1076 67 1104 q 182 1024 142 1049 q 259 1094 222 1057 q 328 1171 296 1131 z "},"\u001c":{"ha":501,"x_min":0,"x_max":0,"o":""},"\u001e":{"ha":501,"x_min":0,"x_max":0,"o":""}," ":{"ha":339,"x_min":0,"x_max":0,"o":""},"!":{"ha":183,"x_min":31,"x_max":153,"o":"m 151 960 l 144 965 q 108 951 128 963 q 72 924 89 940 q 42 889 54 908 q 31 851 31 869 q 32 778 31 826 q 37 669 33 729 q 44 544 40 608 q 55 422 49 479 q 69 322 61 365 q 88 261 78 278 q 94 258 90 257 q 99 264 99 260 q 113 438 107 350 q 125 613 118 526 q 138 786 132 700 q 151 960 144 872 m 153 124 q 135 172 153 151 q 89 193 117 193 q 49 180 65 193 q 32 140 32 167 q 35 115 32 128 q 47 90 39 101 q 65 72 54 79 q 90 64 75 64 q 133 81 114 64 q 153 124 153 99 z "},"\"":{"ha":318,"x_min":31,"x_max":288,"o":"m 288 1063 q 272 1099 288 1083 q 235 1114 256 1114 q 196 1096 210 1114 q 182 1054 182 1078 q 187 939 182 997 q 199 822 192 881 q 203 775 201 799 q 208 728 206 751 q 217 710 210 717 q 236 703 225 703 q 258 717 253 703 q 263 744 263 731 l 263 751 q 266 801 263 776 q 272 851 269 825 q 283 958 278 904 q 288 1063 288 1011 m 136 1063 q 120 1099 136 1083 q 85 1114 104 1114 q 46 1096 61 1114 q 31 1054 31 1078 q 35 939 31 997 q 47 822 40 881 q 52 775 50 799 q 57 728 54 751 q 67 710 58 717 q 86 703 75 703 q 106 717 101 703 q 111 744 111 731 l 111 751 q 115 801 111 776 q 121 851 118 825 q 131 958 126 904 q 136 1063 136 1011 z "},"#":{"ha":688,"x_min":31,"x_max":657,"o":"m 657 764 q 651 771 657 771 l 556 771 q 600 1029 586 897 q 596 1033 600 1033 l 531 1044 q 525 1040 525 1044 q 499 905 511 972 q 472 769 486 838 q 373 766 421 768 q 274 763 325 764 q 295 896 285 832 q 315 1031 306 960 q 311 1036 315 1036 l 249 1044 q 242 1040 242 1044 q 215 899 228 969 q 189 758 203 829 l 99 756 q 93 751 93 756 l 82 692 q 88 685 82 685 q 133 683 111 683 q 176 681 154 682 q 160 570 167 624 q 143 458 153 517 l 46 454 q 40 450 40 454 l 31 389 q 36 382 31 382 q 84 378 60 381 q 132 375 108 376 q 126 342 129 356 q 121 308 124 328 q 106 199 113 254 q 92 88 99 143 q 96 82 92 82 l 132 72 q 139 76 136 71 q 149 119 144 96 q 160 163 154 142 q 183 267 171 211 q 203 375 196 322 q 307 371 257 372 q 410 367 357 369 l 371 92 q 376 85 371 85 l 411 79 q 417 82 414 79 q 444 174 433 124 q 463 274 454 224 q 470 320 467 297 q 479 365 474 343 l 585 363 q 590 367 590 363 l 607 464 q 601 471 607 471 q 551 470 576 471 q 501 469 525 469 q 520 569 513 521 q 539 668 528 617 l 638 665 q 643 668 643 665 l 657 764 m 456 668 q 439 569 447 615 q 422 469 431 522 q 354 463 390 464 q 282 463 318 463 q 250 463 265 463 q 221 461 236 463 q 242 569 232 518 q 263 676 251 621 l 456 668 z "},"$":{"ha":513,"x_min":31,"x_max":482,"o":"m 482 308 q 468 391 482 351 q 429 463 454 431 q 370 521 404 496 q 297 561 336 546 q 299 578 299 571 q 300 594 299 585 q 311 731 306 663 q 328 869 317 800 q 400 835 368 863 q 432 765 432 807 q 429 743 432 757 q 433 737 428 739 q 439 739 438 735 q 453 797 450 767 q 457 858 457 826 q 457 874 457 867 q 456 890 457 882 q 453 896 456 896 q 406 915 431 907 q 354 921 382 924 q 342 920 349 921 q 331 919 336 919 q 333 943 333 933 q 335 965 333 953 q 337 989 336 976 q 340 1015 338 1001 q 335 1022 340 1022 q 309 1016 318 1022 q 294 999 300 1010 q 288 975 289 988 q 286 950 286 963 l 286 914 q 199 902 240 915 q 128 863 158 889 q 81 797 99 836 q 63 711 63 758 q 114 565 63 626 q 242 475 165 503 q 229 308 235 392 q 215 142 224 225 q 155 156 182 142 q 109 194 128 171 q 81 247 90 218 q 71 308 71 276 q 63 313 71 318 l 46 301 q 33 247 35 276 q 31 190 31 218 q 31 171 31 181 q 32 151 31 163 q 35 147 32 147 q 119 108 75 125 q 207 86 163 92 q 204 65 204 75 q 203 44 204 57 q 201 22 201 33 q 197 -3 200 11 q 203 -10 197 -10 l 217 -11 q 247 11 240 -11 q 256 57 253 33 q 258 74 257 65 q 263 89 260 82 q 349 110 308 93 q 418 154 389 126 q 465 221 447 182 q 482 308 482 260 m 278 868 q 253 594 261 732 q 178 656 208 617 q 149 746 149 694 q 186 835 149 803 q 278 868 224 867 m 393 282 q 356 188 393 224 q 265 144 318 153 q 271 219 268 183 q 276 296 274 256 q 282 369 279 332 q 288 442 285 406 q 363 376 333 418 q 393 282 393 333 z "},"%":{"ha":911,"x_min":31,"x_max":881,"o":"m 881 296 q 869 370 881 333 q 835 435 857 407 q 781 480 814 463 q 707 497 749 497 q 628 481 664 497 q 566 438 592 465 q 526 374 540 411 q 513 294 513 336 q 525 217 513 254 q 560 151 538 179 q 617 105 583 122 q 693 88 650 88 q 771 105 736 88 q 830 151 806 122 q 867 218 854 181 q 881 296 881 256 m 667 921 l 661 929 q 610 925 643 926 q 536 921 576 924 q 420 913 482 917 q 302 905 358 910 q 203 894 246 900 q 147 883 161 889 q 63 815 96 860 q 31 713 31 771 q 46 634 31 674 q 88 562 61 594 q 151 509 115 529 q 228 489 186 489 q 305 510 269 489 q 365 566 340 532 q 404 641 390 600 q 418 719 418 682 q 354 857 418 806 q 462 868 408 865 q 568 874 515 871 q 581 874 575 874 q 593 875 586 875 q 450 555 522 714 q 306 236 378 396 q 273 163 289 200 q 240 90 257 126 q 246 82 238 82 q 255 81 250 82 q 264 81 260 81 q 295 83 279 79 q 324 99 311 88 q 355 165 332 114 q 408 287 378 215 q 472 442 438 358 q 540 608 507 526 q 601 760 572 689 q 647 875 629 831 q 659 903 654 892 q 667 921 664 914 m 804 311 q 799 260 804 286 q 784 208 794 233 q 758 163 774 183 q 721 128 743 142 q 663 154 689 135 q 619 200 638 174 q 592 258 601 226 q 582 319 582 289 q 611 416 582 374 q 697 458 640 458 q 747 444 726 458 q 779 410 767 431 q 798 363 792 389 q 804 311 804 336 m 336 714 q 317 615 336 665 q 254 540 299 565 q 192 558 219 542 q 147 601 165 575 q 120 659 129 628 q 111 722 111 690 q 118 774 111 749 q 139 820 125 800 q 174 853 153 840 q 225 865 196 865 q 276 851 254 865 q 310 815 297 838 q 330 767 324 793 q 336 714 336 740 z "},"&":{"ha":988,"x_min":31,"x_max":957,"o":"m 957 93 l 954 104 q 794 160 868 115 q 660 267 721 206 q 693 324 678 290 q 722 393 708 357 q 744 465 735 429 q 761 531 754 501 q 758 536 761 533 q 701 558 731 551 q 640 564 671 564 q 582 556 608 564 q 578 550 578 554 q 582 546 578 547 q 647 519 621 540 q 674 457 674 499 q 656 373 674 417 q 615 293 638 329 q 590 315 604 303 q 561 342 576 328 q 454 442 513 386 q 345 558 396 499 q 260 677 294 618 q 226 786 226 736 q 265 882 226 844 q 361 919 303 919 q 419 909 390 919 q 470 880 449 899 q 504 835 492 861 q 515 779 517 810 l 514 757 q 518 752 514 753 q 525 756 522 751 q 543 860 543 804 q 533 942 543 904 q 529 946 533 946 q 458 965 494 960 q 385 971 421 971 q 292 953 338 971 q 209 905 246 936 q 150 831 172 874 q 128 739 128 789 q 147 660 128 696 q 193 597 165 625 q 132 542 161 571 q 81 481 103 514 q 44 411 58 449 q 31 328 31 374 q 56 223 31 269 q 123 144 82 176 q 216 93 164 111 q 322 75 268 75 q 464 111 397 75 q 589 190 531 147 q 644 145 618 165 q 698 112 671 125 q 756 92 725 99 q 828 85 788 85 l 836 85 q 867 85 849 85 q 903 85 885 85 q 936 88 921 86 q 957 93 951 90 m 550 221 q 463 152 513 179 q 358 125 414 125 q 269 144 311 125 q 196 194 228 163 q 145 268 164 226 q 126 357 126 310 q 151 464 126 413 q 214 556 176 515 q 372 380 289 464 q 550 221 454 296 z "},"'":{"ha":169,"x_min":31,"x_max":139,"o":"m 139 1063 q 122 1099 139 1085 q 85 1114 106 1114 q 46 1096 61 1114 q 31 1054 31 1078 q 35 944 31 999 q 47 831 40 889 q 53 779 50 804 q 58 728 56 754 q 68 710 60 717 q 88 703 76 703 q 109 716 106 703 q 113 743 113 729 l 113 751 q 118 794 115 772 q 122 840 121 817 l 133 1057 q 139 1063 139 1057 z "},"(":{"ha":319,"x_min":31,"x_max":290,"o":"m 288 24 q 164 251 211 128 q 117 506 117 374 q 164 760 117 636 q 288 988 211 883 q 286 994 290 992 q 279 994 282 997 q 181 890 226 946 q 103 770 136 833 q 50 638 69 707 q 31 496 31 568 q 50 358 31 425 q 103 231 69 292 q 181 117 136 171 q 279 17 226 63 l 288 24 z "},")":{"ha":326,"x_min":29,"x_max":296,"o":"m 296 515 q 276 655 296 588 q 223 783 257 722 q 143 899 189 844 q 46 1000 97 954 q 39 1000 43 1003 q 38 993 35 997 q 160 761 113 885 q 208 504 208 638 q 160 250 208 372 q 32 24 111 128 q 33 17 29 21 q 40 17 38 14 q 141 120 94 64 q 222 240 188 176 q 276 372 256 303 q 296 515 296 442 z "},"*":{"ha":393,"x_min":31,"x_max":363,"o":"m 363 840 q 352 883 360 858 q 326 918 344 907 q 319 918 322 921 q 299 898 311 910 q 272 876 286 886 q 244 860 258 867 q 217 853 229 853 l 214 853 q 218 871 214 863 q 225 890 222 879 q 238 935 232 913 q 243 981 243 957 q 239 1008 243 996 q 232 1013 236 1013 q 188 1001 208 1008 q 149 978 168 993 q 147 972 144 974 l 160 939 q 174 900 167 919 q 182 861 182 881 q 181 851 182 856 q 143 875 167 858 q 94 906 119 890 q 49 921 69 921 q 35 918 43 921 q 31 913 31 918 q 31 895 31 904 q 33 875 32 886 q 35 855 35 864 q 36 835 36 846 q 42 829 36 829 q 53 828 47 829 q 65 828 60 828 q 81 826 71 826 q 99 828 92 826 q 135 828 115 829 q 165 821 154 828 q 153 810 160 815 q 138 797 146 804 q 108 772 124 786 q 78 742 92 757 q 56 715 65 728 q 46 692 46 701 q 50 686 46 686 q 90 678 69 682 q 132 675 110 675 l 136 675 q 142 679 142 675 q 160 744 147 711 q 196 800 174 776 q 203 785 199 793 q 211 761 207 776 q 224 728 217 744 q 238 697 231 711 q 254 674 246 683 q 272 665 263 665 q 288 673 281 665 q 302 691 296 681 q 313 712 308 701 q 319 729 317 722 q 301 756 315 744 q 269 778 286 767 q 241 799 254 788 q 225 824 228 810 q 278 826 253 824 q 332 831 304 828 q 344 832 339 832 q 358 833 351 832 l 363 840 z "},"+":{"ha":1035,"x_min":31,"x_max":1004,"o":"m 1004 544 l 1004 597 q 999 603 1004 603 l 546 603 l 546 1065 q 540 1071 546 1071 l 489 1071 q 483 1065 483 1071 l 483 603 l 36 603 q 31 597 31 603 l 31 544 q 36 539 31 539 l 483 539 l 483 79 q 489 74 483 74 l 540 74 q 546 79 546 74 l 546 539 l 999 539 q 1004 544 1004 539 z "},",":{"ha":182,"x_min":31,"x_max":151,"o":"m 151 161 q 136 207 151 188 q 97 239 121 226 q 76 230 88 236 q 54 214 64 224 q 38 193 44 204 q 31 171 31 182 q 39 159 33 167 q 49 144 44 151 q 63 123 56 135 q 69 93 69 111 q 63 56 69 74 q 50 19 57 39 l 50 21 q 45 8 47 15 q 40 -10 43 0 q 43 -16 39 -14 q 50 -15 47 -18 q 84 22 67 1 q 117 65 101 42 q 142 112 132 88 q 151 161 151 136 z "},"-":{"ha":422,"x_min":31,"x_max":392,"o":"m 392 503 l 392 514 q 360 518 383 517 q 305 520 336 519 q 238 521 274 521 q 168 521 201 521 l 54 521 q 49 517 49 521 q 38 475 42 497 q 31 431 33 453 q 38 425 31 422 q 135 453 85 443 q 233 469 185 463 q 313 484 274 476 q 392 503 353 492 z "},".":{"ha":188,"x_min":31,"x_max":157,"o":"m 157 153 q 138 203 157 179 q 90 226 118 226 q 47 207 63 226 q 31 163 31 188 q 44 113 31 139 q 86 88 58 88 q 134 106 111 88 q 157 153 157 125 z "},"/":{"ha":650,"x_min":31,"x_max":619,"o":"m 619 935 l 618 943 l 568 964 q 561 961 564 967 q 503 871 532 917 q 447 779 475 825 q 240 447 343 611 q 32 118 138 283 q 31 116 32 117 q 31 114 31 115 q 52 85 38 97 q 83 69 67 72 q 89 72 86 69 q 356 503 224 289 q 619 935 488 718 z "},":":{"ha":188,"x_min":31,"x_max":157,"o":"m 157 569 q 138 620 157 597 q 90 643 118 643 q 46 624 61 643 q 31 578 31 606 q 44 529 31 554 q 86 504 58 504 q 135 524 113 504 q 157 569 157 543 m 157 188 q 138 238 157 215 q 90 261 118 261 q 47 242 63 261 q 31 197 31 224 q 44 149 31 174 q 86 124 58 124 q 134 142 111 124 q 157 188 157 161 z "},";":{"ha":188,"x_min":31,"x_max":157,"o":"m 157 569 q 138 620 157 597 q 90 643 118 643 q 46 624 61 643 q 31 578 31 606 q 44 529 31 554 q 86 504 57 504 q 135 524 113 504 q 157 569 157 543 m 147 161 q 136 209 147 186 q 93 239 125 232 q 60 219 79 232 q 42 188 42 207 q 45 172 42 181 q 53 153 49 164 q 65 124 60 139 q 71 90 71 108 q 62 42 71 65 q 42 -1 53 19 q 46 -10 36 -10 q 87 10 68 -10 q 119 58 106 31 q 140 114 133 85 q 147 161 147 143 z "},"<":{"ha":318,"x_min":29,"x_max":288,"o":"m 288 364 l 288 372 q 251 409 279 381 q 192 469 222 438 q 139 526 163 500 q 115 557 115 553 q 140 592 115 563 q 193 658 164 622 q 249 727 222 694 q 283 775 276 760 q 281 782 286 779 q 274 782 276 785 q 150 669 211 726 q 32 550 89 613 q 32 544 29 547 q 132 424 81 482 q 236 315 183 365 q 244 317 242 310 q 263 340 253 328 q 288 364 272 353 z "},"=":{"ha":422,"x_min":31,"x_max":392,"o":"m 392 526 l 392 538 q 360 542 383 540 q 305 544 336 543 q 238 544 274 544 q 168 544 201 544 l 54 544 q 49 540 49 544 q 38 499 42 521 q 31 453 33 476 q 38 447 31 444 q 135 475 85 465 q 233 493 185 485 q 313 508 274 500 q 392 526 353 515 m 392 429 l 392 440 q 360 444 383 443 q 305 447 336 446 q 238 447 274 447 q 168 447 201 447 l 54 447 q 49 443 49 447 q 38 402 42 424 q 31 357 33 381 q 38 351 31 349 q 135 379 85 369 q 233 397 185 389 q 313 411 274 404 q 392 429 353 418 z "},">":{"ha":321,"x_min":29,"x_max":290,"o":"m 290 547 l 290 553 q 190 674 242 619 q 86 782 139 729 q 78 781 81 788 q 58 755 68 767 q 35 733 47 743 q 33 725 29 728 q 70 689 42 717 q 128 630 99 661 q 182 573 158 599 q 206 542 206 547 q 179 502 206 535 q 121 429 153 469 q 69 367 93 396 q 39 322 46 338 q 40 315 36 318 q 47 315 44 313 q 151 405 106 360 q 242 497 197 450 q 266 522 254 510 q 290 547 278 535 z "},"?":{"ha":493,"x_min":31,"x_max":463,"o":"m 463 786 q 442 864 463 828 q 390 926 422 900 q 318 967 358 953 q 239 982 278 982 q 172 975 208 982 q 105 951 136 968 q 52 908 74 935 q 31 844 31 882 q 40 797 31 819 q 64 754 50 775 q 68 751 65 751 q 72 756 71 751 q 87 808 78 782 q 110 854 96 833 q 145 888 124 875 q 197 900 167 900 q 255 896 226 900 q 306 879 283 892 q 343 845 329 867 q 357 790 357 824 q 340 706 357 751 q 297 616 322 661 q 244 529 272 571 q 193 454 215 488 q 163 410 175 429 q 150 385 150 392 q 160 351 150 369 q 185 318 169 333 q 217 292 200 303 q 250 281 235 281 q 255 284 254 281 q 253 290 256 288 q 225 340 225 308 q 256 426 225 378 q 326 522 286 474 q 374 585 350 553 q 418 651 399 618 q 450 719 438 685 q 463 786 463 753 m 293 124 q 274 172 293 151 q 228 193 256 193 q 188 180 204 193 q 172 140 172 167 q 176 115 172 128 q 186 90 179 101 q 203 72 193 79 q 229 64 214 64 q 273 81 253 64 q 293 124 293 99 z "},"@":{"ha":972,"x_min":13,"x_max":954,"o":"m 942 549 q 926 712 954 643 q 841 826 897 781 q 707 892 785 871 q 544 913 629 913 q 354 879 443 911 q 197 788 265 847 q 84 647 129 729 q 25 461 39 564 q 40 295 13 369 q 122 169 67 221 q 253 91 176 118 q 417 64 329 64 q 546 81 483 65 q 675 118 608 96 q 678 119 678 119 q 678 121 678 121 q 673 143 676 126 q 664 158 669 160 q 559 122 613 135 q 453 108 506 110 q 301 137 368 108 q 189 216 233 165 q 126 338 144 267 q 118 494 107 410 q 166 648 131 579 q 257 765 201 717 q 385 840 313 814 q 544 867 458 867 q 688 843 625 867 q 790 774 750 819 q 847 664 831 729 q 853 517 864 599 q 838 453 849 489 q 810 387 828 418 q 765 334 792 356 q 703 313 739 313 q 652 335 669 313 q 639 390 635 358 q 656 494 646 443 q 676 599 667 546 q 683 634 679 617 q 690 667 688 651 q 690 667 690 667 q 689 669 689 668 q 622 694 658 685 q 549 703 585 703 q 451 682 494 703 q 374 627 407 661 q 319 547 340 593 q 292 451 299 501 q 292 385 288 418 q 313 327 297 353 q 353 285 328 301 q 417 268 379 268 l 435 268 q 494 308 463 288 q 554 350 525 329 q 604 289 571 311 q 678 268 638 267 q 778 294 733 268 q 858 360 824 319 q 913 451 892 401 q 942 549 935 500 m 589 585 l 564 390 q 517 360 543 372 q 467 347 492 347 q 416 362 436 347 q 385 399 396 376 q 371 450 374 422 q 372 504 368 478 q 385 553 375 528 q 413 601 396 579 q 451 638 429 624 q 501 653 474 653 q 555 631 532 653 q 589 585 578 610 z "},"A":{"ha":1097,"x_min":31,"x_max":1067,"o":"m 1063 6 q 1067 11 1067 6 q 1063 17 1067 17 q 981 40 1015 21 q 922 101 946 58 q 822 309 869 201 q 728 528 774 417 q 642 750 683 639 q 563 965 600 861 q 547 1007 556 986 q 532 1047 539 1028 q 526 1051 531 1051 q 521 1047 522 1051 q 448 850 485 950 q 376 651 411 750 q 282 385 329 517 q 182 121 235 253 q 126 46 163 72 q 35 11 89 19 q 31 5 31 10 q 36 0 32 0 q 66 2 51 1 q 96 4 81 3 q 144 8 119 7 q 194 10 169 10 q 242 8 218 10 q 289 4 265 7 q 313 3 300 3 q 336 1 325 3 l 336 13 q 312 16 325 14 q 288 24 299 18 q 269 38 276 29 q 261 61 261 47 q 274 129 261 82 q 305 228 288 176 q 340 329 322 281 q 368 401 358 378 l 663 401 q 731 224 696 313 q 799 47 765 136 l 724 13 q 721 5 719 10 q 726 1 722 0 q 743 3 733 3 q 760 4 753 3 q 829 9 794 7 q 899 11 864 11 q 928 10 913 11 q 957 7 943 8 q 992 3 974 4 q 1029 4 1011 3 l 1063 6 m 639 461 l 386 461 q 440 622 415 543 q 492 785 464 701 q 503 822 497 803 q 517 860 510 840 l 639 461 z "},"B":{"ha":768,"x_min":29,"x_max":738,"o":"m 738 301 q 720 399 738 353 q 672 481 703 444 q 599 543 640 517 q 508 585 557 569 q 555 634 532 607 q 597 691 578 661 q 626 753 615 721 q 638 819 638 785 q 610 917 638 875 q 542 985 583 958 q 449 1026 500 1013 q 350 1039 397 1039 q 293 1038 322 1039 q 235 1033 264 1036 q 178 1028 207 1031 q 118 1025 149 1025 q 38 1033 79 1025 q 31 1032 33 1035 q 32 1026 29 1029 q 56 1008 43 1011 q 85 1004 69 1006 q 106 1001 96 1003 q 125 992 117 999 q 138 971 133 985 q 143 933 143 957 l 143 149 q 140 94 143 115 q 128 58 138 72 q 101 33 119 43 q 50 13 82 22 q 47 6 46 11 q 51 1 47 1 q 141 1 96 1 q 231 -1 186 0 q 321 -3 276 -3 q 410 -3 365 -3 q 534 19 475 -3 q 638 80 593 40 q 710 176 683 119 q 738 301 738 232 m 522 799 q 505 699 522 738 q 456 640 488 661 q 378 610 424 618 q 279 603 333 603 l 271 603 l 271 982 q 310 992 290 988 q 349 996 329 996 q 422 980 389 996 q 476 937 454 964 q 510 874 499 910 q 522 799 522 838 m 617 258 q 603 178 617 217 q 563 108 589 139 q 500 60 536 78 q 421 42 464 42 q 372 49 399 42 q 323 72 346 57 q 285 106 300 86 q 269 153 269 126 l 269 547 l 279 547 q 364 544 319 547 q 446 522 408 542 q 515 476 483 504 q 569 413 546 447 q 604 338 592 378 q 617 258 617 299 z "},"C":{"ha":989,"x_min":31,"x_max":958,"o":"m 958 201 q 954 250 958 226 q 949 255 953 254 q 943 251 946 256 q 892 158 918 197 q 833 92 867 118 q 754 52 799 65 q 649 39 710 39 q 451 83 542 39 q 294 201 360 128 q 191 371 228 275 q 154 569 154 467 q 185 749 154 668 q 274 887 217 829 q 411 976 331 944 q 590 1007 492 1007 q 704 991 650 1007 q 801 943 758 975 q 873 864 844 911 q 913 754 901 817 q 917 750 914 750 q 922 754 921 750 q 940 881 932 818 q 950 1011 947 944 q 944 1017 950 1017 q 873 1024 910 1019 q 800 1033 836 1028 q 701 1047 751 1040 q 599 1054 650 1054 q 499 1049 553 1054 q 393 1030 446 1043 q 292 994 340 1017 q 210 939 244 972 q 133 846 167 897 q 77 738 100 794 q 42 621 54 681 q 31 501 31 561 q 69 292 31 386 q 178 131 108 199 q 344 27 249 64 q 553 -10 440 -10 q 733 -1 644 -10 q 911 24 822 8 q 915 26 915 24 q 947 111 935 65 q 958 201 958 157 z "},"D":{"ha":1094,"x_min":28,"x_max":1064,"o":"m 1064 532 q 1064 547 1064 540 q 1063 564 1064 556 q 1061 581 1061 572 q 1061 597 1061 589 q 1015 769 1061 689 q 895 910 968 850 q 733 1003 822 969 q 557 1038 643 1038 q 482 1036 521 1038 q 407 1033 443 1035 q 332 1028 369 1031 q 256 1026 294 1026 q 197 1028 226 1026 q 136 1032 167 1029 q 87 1034 113 1033 q 36 1035 61 1035 q 32 1028 28 1035 q 48 1015 38 1018 q 72 1010 58 1013 q 97 1004 85 1007 q 120 994 110 1001 q 137 974 131 988 q 143 936 143 960 l 143 157 q 140 104 143 126 q 128 66 138 82 q 99 39 118 50 q 50 21 81 28 q 47 15 46 19 q 51 10 47 10 q 166 8 108 13 q 279 0 224 4 q 377 -7 328 -4 q 475 -10 426 -10 q 715 23 607 -10 q 901 122 824 56 q 1022 291 979 189 q 1064 532 1064 393 m 939 479 q 905 290 939 371 q 809 154 871 208 q 661 73 747 100 q 471 46 575 46 q 383 51 421 46 q 319 73 344 56 q 282 123 294 90 q 269 210 269 156 l 269 958 q 344 976 307 971 q 421 982 382 982 q 630 947 535 982 q 794 847 725 913 q 901 689 863 782 q 939 479 939 596 z "},"E":{"ha":674,"x_min":31,"x_max":643,"o":"m 643 181 l 633 182 q 570 83 618 118 q 457 49 522 49 q 406 54 432 49 q 355 71 379 60 q 310 99 331 82 q 275 139 289 115 l 275 525 l 332 525 q 374 525 346 525 q 433 523 403 525 q 488 515 463 521 q 522 500 514 510 q 538 478 533 489 q 544 456 542 467 q 551 434 547 444 q 563 417 556 424 q 569 415 565 414 q 572 421 572 417 q 578 473 575 447 q 586 526 582 499 q 592 569 589 547 q 597 614 594 592 q 590 619 597 622 q 568 613 579 617 q 546 603 557 608 q 516 590 531 596 q 492 583 501 583 l 274 583 l 274 976 l 422 976 q 525 955 485 976 q 571 865 565 933 q 576 860 571 861 q 582 864 581 860 q 585 876 583 871 q 588 888 586 881 q 603 963 596 924 q 615 1040 611 1001 q 607 1044 615 1050 q 574 1038 599 1040 q 516 1033 550 1035 q 440 1031 482 1032 q 353 1031 397 1031 q 231 1031 294 1031 q 121 1033 167 1032 l 36 1033 q 32 1031 33 1033 q 33 1025 31 1028 q 62 1009 49 1014 q 89 1001 75 1004 q 112 995 101 999 q 131 985 122 992 q 144 966 139 978 q 149 933 149 954 l 149 149 q 145 99 149 124 q 132 56 142 75 q 104 26 122 38 q 56 13 86 14 l 56 1 q 144 4 100 4 q 233 4 189 4 q 321 3 278 4 q 408 3 364 3 q 497 1 453 1 q 586 1 542 1 l 607 6 q 611 8 611 10 q 617 14 617 8 l 621 47 l 621 46 q 631 113 626 79 q 643 181 636 147 z "},"F":{"ha":667,"x_min":31,"x_max":636,"o":"m 635 1039 q 633 1045 636 1042 q 626 1046 629 1049 q 565 1031 600 1035 q 493 1026 529 1026 q 463 1027 478 1026 q 435 1028 449 1028 q 410 1028 422 1028 q 389 1029 399 1029 l 290 1029 q 38 1033 164 1029 q 32 1030 33 1033 q 35 1024 31 1026 q 67 1010 53 1014 q 92 1003 81 1006 q 115 997 104 1000 q 133 985 125 993 q 144 964 140 978 q 149 928 149 950 l 149 143 q 147 88 149 110 q 138 51 146 65 q 110 27 129 36 q 54 13 90 18 q 51 6 50 11 q 56 1 51 1 l 74 1 q 156 6 115 1 q 192 10 175 8 q 229 11 210 11 q 307 7 267 11 q 346 3 326 4 q 385 1 365 1 l 397 1 l 397 13 q 349 23 372 11 q 310 54 326 35 q 283 98 293 74 q 274 147 274 122 l 274 525 l 433 525 q 526 501 493 525 q 558 414 560 476 q 563 409 558 410 q 569 413 568 408 q 588 512 581 461 q 597 614 594 563 q 594 619 597 618 q 588 618 590 621 q 559 594 576 607 q 528 582 542 582 l 274 582 l 274 957 q 318 960 296 957 q 361 965 340 963 l 360 965 q 409 971 385 968 q 458 974 433 974 q 554 948 519 974 q 589 858 589 922 q 594 853 589 854 q 600 857 599 853 q 616 936 608 897 q 631 1015 624 975 l 635 1039 z "},"G":{"ha":1079,"x_min":63,"x_max":1081,"o":"m 1081 497 l 1079 508 q 915 514 996 513 q 750 515 833 515 q 744 512 746 515 q 747 506 743 508 q 769 494 758 499 q 792 488 781 490 q 839 467 818 479 q 860 422 860 456 l 860 110 q 779 65 826 75 q 686 54 732 54 q 487 95 579 54 q 327 206 394 136 q 221 370 260 276 q 182 569 182 464 q 217 748 182 667 q 314 887 253 829 q 458 976 375 944 q 636 1008 540 1008 q 746 995 693 1008 q 841 953 799 982 q 913 882 883 925 q 953 779 942 839 q 959 776 954 775 q 964 781 964 776 q 967 798 965 789 q 969 817 968 807 q 983 913 976 865 q 993 1011 990 961 q 988 1017 993 1017 q 933 1024 960 1019 q 878 1032 906 1028 q 753 1047 817 1040 q 628 1054 690 1054 q 408 1022 511 1054 q 228 924 306 989 q 107 765 151 860 q 63 546 63 669 q 96 342 63 439 q 191 170 129 246 q 341 47 253 94 q 539 -8 429 0 q 663 -12 601 -12 q 745 -10 703 -12 q 830 -1 788 -8 q 912 22 872 7 q 985 63 951 38 q 988 67 988 65 l 988 418 q 1016 474 988 458 q 1081 497 1044 490 z "},"H":{"ha":1126,"x_min":31,"x_max":1096,"o":"m 1096 13 q 1001 56 1031 24 q 972 154 972 88 l 972 925 q 998 988 972 974 q 1065 1011 1024 1003 q 1069 1017 1069 1013 q 1064 1022 1068 1022 q 917 1018 989 1018 q 826 1020 872 1018 q 736 1025 781 1022 q 731 1020 732 1025 q 735 1014 731 1015 l 763 1006 q 794 996 779 1000 q 822 983 810 992 q 840 961 833 975 q 846 924 846 947 l 846 601 l 264 601 l 264 931 q 292 991 264 969 q 357 1014 319 1013 q 361 1019 361 1014 q 357 1025 361 1025 q 342 1024 350 1025 q 326 1024 333 1024 q 263 1022 294 1022 q 199 1021 231 1021 q 115 1023 157 1021 q 31 1028 74 1025 l 31 1017 q 103 994 69 1015 q 138 929 138 972 l 138 129 q 135 78 138 97 q 122 47 132 58 q 94 27 113 35 q 43 14 75 19 q 40 8 39 13 q 44 3 40 3 q 62 2 51 3 q 79 1 72 1 q 128 0 104 0 q 175 0 151 0 q 223 1 196 0 q 271 1 250 1 q 329 3 300 3 q 386 3 358 3 q 390 8 390 3 q 386 14 390 14 q 294 51 325 19 q 263 147 263 83 l 263 544 l 846 544 l 846 150 q 843 113 846 135 q 833 71 840 92 q 813 35 825 50 q 782 21 800 21 q 768 19 775 21 q 754 15 761 18 q 751 9 750 14 q 756 4 751 4 q 829 6 792 6 q 903 7 867 7 q 999 6 951 7 q 1094 1 1046 4 l 1096 13 z "},"I":{"ha":415,"x_min":31,"x_max":385,"o":"m 385 3 l 385 14 q 289 53 317 21 q 261 156 261 85 l 261 931 q 268 970 261 956 q 288 994 275 985 q 317 1008 300 1003 q 356 1018 335 1014 q 358 1025 360 1019 q 353 1029 357 1031 q 277 1022 315 1024 q 200 1019 239 1019 q 35 1028 115 1019 q 31 1022 31 1028 q 35 1017 31 1018 q 105 993 75 1011 q 135 929 135 975 l 135 150 q 40 13 135 49 q 37 6 36 10 q 42 1 38 1 q 148 3 94 3 q 254 4 201 4 q 318 4 286 4 q 385 3 351 4 z "},"J":{"ha":401,"x_min":-39,"x_max":369,"o":"m 369 1013 l 368 1024 l 325 1024 l 215 1024 l 158 1024 q 102 1024 131 1024 q 43 1028 74 1025 q 38 1024 39 1028 q 40 1018 36 1021 q 67 1004 56 1008 q 90 997 79 1000 q 113 988 101 993 q 132 976 124 983 q 145 956 140 968 q 150 924 150 943 l 150 101 q 140 -31 150 26 q 106 -138 129 -89 q 49 -233 83 -187 q -36 -329 14 -278 q -36 -337 -39 -333 q -29 -339 -33 -342 q 88 -266 32 -310 q 185 -168 143 -222 q 251 -49 226 -114 q 276 88 276 15 l 276 925 q 303 988 276 972 q 369 1013 329 1004 z "},"K":{"ha":1072,"x_min":31,"x_max":1042,"o":"m 1042 14 l 1039 24 q 958 42 1001 24 q 867 93 914 61 q 773 167 821 125 q 678 257 725 210 q 585 352 631 304 q 500 444 540 400 q 433 519 464 485 q 376 578 403 554 q 440 640 406 604 q 508 715 474 676 q 602 815 553 764 q 701 910 651 867 q 801 984 751 954 q 899 1019 851 1014 q 903 1025 903 1021 q 899 1031 903 1031 l 857 1032 q 826 1033 842 1032 q 793 1033 810 1033 q 713 1033 753 1033 q 631 1036 672 1033 q 626 1029 622 1036 q 636 992 636 1010 q 614 926 636 963 q 557 851 592 890 q 480 769 522 811 q 397 690 438 728 q 331 626 365 660 q 274 565 296 593 q 272 742 272 657 q 269 919 271 828 q 297 988 269 960 q 361 1018 324 1015 q 365 1024 365 1018 q 361 1029 365 1029 q 352 1030 357 1029 q 343 1031 347 1031 q 281 1031 314 1032 q 218 1028 247 1031 q 163 1025 190 1026 q 110 1024 136 1024 q 36 1028 71 1024 q 31 1024 32 1029 q 35 1017 31 1018 q 72 1006 53 1014 q 107 987 92 999 q 133 958 122 975 q 143 921 143 942 l 143 153 q 142 97 143 121 q 131 57 140 74 q 103 30 122 40 q 49 14 83 19 q 45 8 44 13 q 50 3 46 3 q 133 10 92 7 q 215 13 174 13 q 300 10 257 13 q 386 4 343 7 q 392 8 390 4 q 389 15 393 13 q 358 30 374 24 q 328 40 342 36 q 300 51 311 46 q 281 68 289 57 q 271 100 274 79 q 268 157 268 121 q 269 282 268 219 q 271 408 269 344 q 272 465 271 436 q 272 521 272 493 q 341 449 306 489 q 418 363 376 410 q 537 229 475 297 q 663 106 599 161 q 794 14 728 50 q 924 -22 860 -22 q 1042 14 986 -22 z "},"L":{"ha":707,"x_min":31,"x_max":676,"o":"m 676 193 l 665 197 q 573 92 633 132 q 440 51 513 51 q 371 63 403 51 q 315 94 339 74 q 278 146 292 115 q 264 215 264 176 l 264 917 q 297 988 264 961 q 369 1022 329 1015 q 373 1028 374 1024 q 368 1033 372 1033 q 287 1028 328 1031 q 204 1025 246 1025 q 31 1029 115 1025 l 31 1018 q 106 990 75 1017 q 138 915 138 963 l 138 150 q 131 108 138 131 q 113 65 125 85 q 84 32 101 46 q 46 17 67 18 q 42 11 42 17 q 46 6 42 6 q 83 7 63 7 q 124 8 106 7 q 353 13 238 13 q 635 0 493 13 q 640 3 638 0 q 643 8 642 6 q 644 10 644 10 q 643 15 644 14 q 665 91 660 51 q 674 171 671 131 q 674 181 674 176 q 676 193 675 186 z "},"M":{"ha":1415,"x_min":31,"x_max":1385,"o":"m 1385 13 q 1356 22 1369 19 q 1331 28 1343 25 q 1285 41 1308 32 q 1243 78 1263 50 q 1225 134 1235 89 q 1206 245 1215 179 q 1186 392 1196 311 q 1167 559 1176 474 q 1151 728 1158 644 q 1136 881 1143 811 q 1130 943 1133 911 q 1124 1001 1126 975 q 1121 1044 1122 1028 q 1119 1061 1119 1061 l 1110 1064 q 1095 1039 1110 1064 q 1061 977 1081 1014 q 1020 901 1042 940 q 986 832 999 861 q 972 799 979 815 q 956 765 964 782 q 897 640 925 703 q 839 514 868 576 q 767 351 803 433 q 692 188 731 268 q 645 290 674 222 q 582 432 617 358 q 517 562 553 492 q 445 702 482 632 q 373 838 408 772 q 310 954 338 904 q 267 1035 283 1004 q 250 1065 250 1065 l 240 1063 q 238 1045 240 1063 q 233 1001 236 1028 q 227 940 231 974 q 219 874 224 907 q 203 715 211 801 q 185 539 194 628 q 165 365 175 450 q 147 214 156 281 q 132 103 139 147 q 121 54 125 60 q 90 26 106 32 q 53 18 75 21 q 43 17 49 17 q 35 15 39 17 q 32 8 31 14 q 38 4 33 3 q 76 8 57 7 q 114 8 94 8 q 218 4 165 8 q 322 0 269 0 q 328 4 326 0 q 325 11 329 8 q 306 19 315 15 q 288 25 296 22 q 244 47 261 35 q 228 96 228 58 q 239 337 228 215 q 265 575 250 458 q 276 667 271 622 q 286 761 282 713 q 344 643 319 699 q 399 522 369 588 q 519 260 456 394 q 669 7 582 126 q 675 4 672 4 q 679 7 678 4 q 731 115 706 61 q 782 224 757 169 q 908 497 846 358 q 1040 767 971 636 q 1052 646 1046 701 q 1067 525 1058 590 l 1067 526 q 1090 310 1079 422 q 1100 93 1100 199 q 1094 62 1100 78 q 1083 29 1089 46 q 1081 21 1082 25 q 1078 13 1079 17 q 1083 6 1075 6 q 1233 2 1158 3 q 1383 1 1308 1 l 1385 13 z "},"N":{"ha":1161,"x_min":31,"x_max":1131,"o":"m 1131 1017 l 1129 1028 q 1113 1028 1124 1028 q 1094 1029 1101 1029 q 1065 1030 1081 1032 q 1036 1026 1050 1028 l 988 1022 q 907 1024 947 1019 q 826 1033 867 1029 q 820 1031 822 1035 q 821 1025 818 1028 q 843 1015 831 1017 q 868 1010 856 1013 q 896 1004 882 1007 q 922 991 910 1001 q 940 960 933 981 q 947 906 947 940 q 951 560 947 732 q 956 214 956 386 l 956 203 q 565 633 760 424 q 165 1053 371 842 q 157 1053 163 1056 q 147 1012 150 1047 q 141 921 143 976 q 138 794 139 865 q 138 647 138 724 q 138 426 138 535 q 140 242 139 318 q 142 179 142 206 q 142 140 142 153 q 137 99 142 115 q 124 73 132 83 q 104 56 115 63 q 81 43 93 50 q 58 29 69 36 q 33 11 47 22 q 33 4 31 8 q 38 1 35 0 q 110 11 74 7 q 181 15 146 15 q 233 13 207 15 q 283 8 258 11 q 322 4 303 6 q 361 1 342 3 q 366 5 365 1 q 364 11 367 8 q 329 30 346 25 q 297 38 313 35 q 272 44 283 40 q 251 59 260 49 q 237 90 242 69 q 232 146 232 110 q 229 289 232 218 q 224 432 226 360 q 218 577 221 506 q 215 719 215 649 q 217 771 215 746 q 222 822 219 796 q 272 766 250 792 q 321 708 293 740 q 654 336 485 521 q 1013 -11 824 151 q 1019 -12 1015 -14 q 1022 -7 1022 -10 q 1037 247 1033 121 q 1040 499 1040 372 q 1040 613 1040 557 q 1039 726 1040 669 q 1038 840 1038 783 q 1038 954 1038 897 q 1045 978 1038 968 q 1065 995 1053 989 q 1092 1006 1078 1001 q 1119 1014 1107 1010 q 1125 1015 1122 1015 q 1131 1017 1128 1015 z "},"O":{"ha":1136,"x_min":31,"x_max":1106,"o":"m 1106 485 q 1062 710 1106 606 q 941 893 1018 815 q 760 1015 864 971 q 535 1060 656 1060 q 522 1060 529 1060 q 511 1058 517 1060 q 286 987 378 1031 q 138 874 194 943 q 56 707 81 806 q 31 472 31 608 q 54 351 31 411 q 119 238 78 292 q 213 136 160 183 q 326 54 267 89 q 449 0 386 19 q 569 -19 511 -19 q 774 18 676 -19 q 944 123 871 56 q 1062 283 1018 190 q 1106 485 1106 375 m 985 488 q 959 316 985 397 q 883 173 933 235 q 758 74 832 111 q 588 38 683 38 q 405 84 485 38 q 270 204 325 131 q 187 371 215 278 q 158 557 158 464 q 185 730 158 649 q 263 872 211 811 q 389 967 314 932 q 561 1003 464 1003 q 743 957 664 1003 q 876 838 822 911 q 957 672 929 764 q 985 488 985 581 z "},"P":{"ha":728,"x_min":31,"x_max":697,"o":"m 697 789 q 678 906 697 860 q 623 979 658 951 q 537 1018 588 1007 q 424 1029 486 1029 l 251 1029 q 144 1031 199 1029 q 36 1035 90 1032 q 31 1031 32 1035 q 35 1025 31 1026 q 72 1012 53 1021 q 107 990 92 1003 q 133 959 122 976 q 143 921 143 942 l 143 150 q 142 94 143 117 q 132 55 140 71 q 104 29 124 39 q 50 14 85 19 q 47 8 46 13 q 51 3 47 3 q 115 1 83 1 q 179 1 147 1 l 392 1 q 396 7 396 1 q 392 13 396 13 q 297 44 325 15 q 269 138 269 72 l 269 967 q 369 989 322 989 q 462 965 421 989 q 531 903 503 942 q 574 818 560 865 q 589 724 589 771 q 573 626 589 671 q 527 550 557 582 q 454 501 497 518 q 357 483 411 483 q 340 483 349 483 q 325 485 333 483 q 320 481 321 486 q 324 474 319 475 q 404 463 365 463 q 522 491 468 463 q 614 565 575 519 q 675 669 653 611 q 697 789 697 728 z "},"Q":{"ha":1153,"x_min":31,"x_max":2006,"o":"m 2006 -144 l 2000 -135 q 1856 -180 1929 -165 q 1706 -194 1782 -194 q 1486 -168 1594 -194 q 1274 -99 1378 -142 q 1070 -1 1169 -56 q 879 108 971 53 q 977 201 933 149 q 1051 313 1021 253 q 1097 440 1081 374 q 1113 574 1113 507 q 1070 781 1113 688 q 955 942 1028 875 q 785 1047 882 1010 q 578 1083 688 1083 q 363 1042 463 1083 q 190 928 264 1000 q 73 756 115 856 q 31 543 31 657 q 69 323 31 422 q 179 151 108 224 q 349 40 250 79 q 569 0 449 0 q 672 11 619 0 q 771 43 725 22 q 798 35 779 43 q 840 16 817 28 q 887 -9 863 4 q 932 -33 911 -22 l 932 -32 q 958 -47 947 -40 q 975 -57 968 -54 q 1129 -129 1050 -94 q 1292 -191 1208 -164 q 1460 -234 1375 -218 q 1629 -250 1544 -250 q 1824 -223 1729 -250 q 2006 -144 1919 -196 m 972 565 q 949 406 972 483 q 883 261 926 328 q 776 142 839 194 q 636 61 714 90 q 446 126 533 75 q 294 253 358 178 q 194 424 231 329 q 158 621 158 518 q 188 787 158 713 q 272 915 218 861 q 401 997 326 968 q 568 1025 476 1025 q 740 987 665 1025 q 867 885 815 949 q 945 739 918 822 q 972 565 972 656 z "},"R":{"ha":1092,"x_min":31,"x_max":1061,"o":"m 1061 13 l 1058 24 q 944 44 999 17 q 838 118 889 71 q 742 225 788 165 q 654 342 696 285 q 600 415 626 379 q 554 474 574 451 q 615 538 585 503 q 667 614 644 574 q 704 698 690 654 q 718 786 718 742 q 692 901 718 854 q 622 978 665 949 q 522 1022 578 1008 q 408 1036 467 1036 q 363 1035 385 1036 q 318 1033 342 1035 q 228 1029 272 1029 q 144 1033 186 1029 q 104 1035 125 1035 q 63 1036 83 1036 l 36 1036 q 31 1032 32 1036 q 35 1026 31 1028 q 110 982 78 1015 q 143 904 143 949 l 143 151 q 116 69 143 107 q 49 13 89 31 q 46 5 44 10 q 51 1 47 0 q 136 10 94 7 q 221 14 178 14 q 307 11 264 14 q 393 4 350 8 l 393 15 q 303 60 338 21 q 269 157 269 100 l 269 425 q 300 426 285 426 q 331 426 315 426 q 403 422 367 426 q 467 393 439 417 q 540 315 503 363 q 606 225 576 268 q 668 138 635 182 q 740 60 701 94 q 825 3 779 25 q 925 -19 871 -19 q 995 -11 961 -19 q 1061 13 1029 -3 m 588 714 q 546 556 588 614 q 399 497 504 497 q 335 499 368 497 q 271 507 303 501 l 271 979 q 316 991 293 988 q 363 994 339 994 q 460 969 418 994 q 530 904 501 944 q 573 814 558 864 q 588 714 588 764 z "},"S":{"ha":597,"x_min":31,"x_max":567,"o":"m 567 274 q 548 368 567 325 q 499 449 529 411 q 429 520 468 486 q 351 588 390 554 q 281 647 315 617 q 222 708 247 676 q 180 772 196 739 q 164 842 164 804 q 177 908 164 878 q 213 960 190 939 q 267 994 236 982 q 335 1007 299 1007 q 398 994 369 1007 q 448 959 426 981 q 484 908 469 938 q 506 846 499 879 q 512 842 507 842 q 517 847 517 843 q 517 852 517 850 q 518 857 518 854 q 530 946 525 901 q 539 1035 535 990 q 535 1040 539 1040 q 399 1058 471 1058 q 284 1045 346 1058 q 169 1003 222 1032 q 81 928 117 974 q 44 818 44 882 q 64 735 44 776 q 114 653 83 693 q 183 574 144 613 q 261 499 222 536 q 335 428 299 464 q 399 356 371 392 q 445 283 428 319 q 463 211 463 246 q 444 142 463 174 q 396 90 425 111 q 331 56 367 68 q 260 44 294 44 q 183 56 218 44 q 122 90 149 68 q 81 146 96 113 q 67 222 67 179 l 67 238 q 62 242 67 242 q 56 239 57 243 q 51 216 53 228 q 46 193 49 204 q 35 150 40 172 q 31 103 31 128 q 47 45 31 68 q 88 8 63 22 q 143 -13 113 -7 q 203 -19 174 -19 q 326 1 261 -19 q 444 61 390 22 q 532 153 497 100 q 567 274 567 207 z "},"T":{"ha":918,"x_min":31,"x_max":888,"o":"m 888 1022 l 888 1033 q 883 1039 888 1039 q 865 1036 874 1038 q 849 1033 856 1035 q 824 1027 838 1031 q 800 1024 811 1024 l 197 1024 q 133 1028 161 1024 q 76 1051 106 1033 q 68 1049 71 1057 q 61 1023 65 1036 q 53 996 57 1010 q 38 942 44 968 q 31 888 31 915 q 33 863 31 876 q 37 858 33 858 q 43 861 40 857 q 94 931 60 900 q 172 963 128 963 l 401 963 l 401 142 q 399 87 401 108 q 388 51 397 65 q 360 29 379 38 q 308 14 342 21 q 305 8 304 13 q 310 3 306 3 q 381 8 346 6 q 453 10 417 10 q 552 7 503 10 q 650 0 601 4 q 655 5 654 0 q 651 11 656 10 q 563 58 599 19 q 528 153 528 97 l 528 964 l 696 964 q 754 959 726 964 q 804 942 782 954 q 841 908 826 929 q 863 851 856 886 q 868 847 864 847 q 874 851 872 847 q 886 935 885 889 q 888 1022 888 982 z "},"U":{"ha":1082,"x_min":31,"x_max":1051,"o":"m 1051 1018 l 1050 1029 l 1033 1029 q 972 1030 1001 1029 q 913 1031 943 1031 l 847 1031 q 799 1031 824 1031 q 750 1033 775 1031 q 745 1028 746 1033 q 749 1022 744 1024 q 831 988 803 1014 q 860 904 860 961 q 860 761 860 832 q 861 619 860 690 q 863 476 863 549 q 863 335 863 406 q 840 217 863 269 q 777 126 817 164 q 683 67 738 88 q 565 46 629 46 q 449 66 503 46 q 355 124 394 86 q 293 213 315 161 q 271 329 271 265 q 271 474 271 401 q 272 618 271 546 q 274 761 274 690 q 274 906 274 832 q 283 940 274 924 q 306 970 292 956 q 337 996 321 985 q 368 1015 353 1007 q 371 1022 372 1018 q 365 1026 369 1026 q 310 1025 338 1025 q 256 1025 283 1025 q 147 1026 201 1025 q 36 1031 92 1028 q 31 1026 32 1031 q 35 1019 31 1021 q 116 984 86 1007 q 146 904 146 961 q 145 866 146 889 q 144 815 144 843 q 144 724 144 775 q 143 619 143 672 q 144 506 143 563 q 146 401 144 449 q 151 318 147 353 q 158 269 154 283 q 220 153 179 206 q 315 62 261 100 q 433 2 369 24 q 564 -19 497 -19 q 726 14 653 -19 q 850 105 799 47 q 929 239 901 163 q 957 401 957 315 l 957 906 q 983 978 957 946 q 1051 1018 1010 1011 z "},"V":{"ha":1147,"x_min":31,"x_max":1117,"o":"m 1117 1019 l 1115 1031 q 1040 1024 1078 1026 q 967 1021 1003 1021 q 894 1024 931 1021 q 822 1031 858 1026 q 817 1026 818 1032 q 821 1019 817 1021 q 841 1015 828 1018 q 867 1006 854 1011 q 889 994 879 1001 q 899 979 899 988 q 875 854 899 932 q 815 685 851 776 q 738 498 779 593 q 661 322 696 403 q 631 254 644 286 q 606 194 617 222 q 581 258 596 221 q 542 351 565 296 q 494 469 519 406 q 444 595 469 532 q 396 719 419 658 q 355 831 372 779 q 327 920 338 882 q 317 976 317 958 q 326 991 317 985 q 347 1001 335 997 q 371 1009 358 1006 q 390 1014 383 1013 q 392 1020 393 1015 q 389 1025 392 1025 l 344 1025 q 245 1026 293 1025 q 149 1031 197 1028 q 93 1033 121 1032 q 38 1035 65 1033 q 32 1032 33 1035 q 35 1026 31 1029 q 66 1012 53 1015 q 90 1006 79 1008 q 129 992 111 1000 q 163 958 147 983 q 210 865 188 918 q 253 761 233 811 q 261 738 257 750 q 269 715 265 725 q 308 614 289 665 q 347 511 328 563 q 449 244 396 376 q 576 -14 501 113 q 582 -17 579 -17 q 586 -14 585 -17 q 610 38 594 4 q 644 116 625 71 q 685 213 663 161 q 731 321 707 265 q 792 465 760 390 q 854 610 824 539 q 913 747 885 682 q 963 861 940 811 q 1001 943 985 911 q 1022 982 1017 975 q 1056 1003 1038 997 q 1092 1014 1074 1010 q 1104 1016 1099 1015 q 1117 1019 1110 1017 z "},"W":{"ha":1464,"x_min":29,"x_max":1433,"o":"m 1433 1013 l 1433 1024 q 1381 1022 1407 1022 q 1326 1022 1354 1022 q 1234 1024 1281 1022 q 1142 1029 1188 1025 q 1138 1024 1138 1029 q 1142 1018 1138 1018 q 1165 1013 1151 1017 q 1192 1001 1179 1008 q 1215 985 1206 994 q 1225 963 1225 975 q 1208 786 1225 883 q 1167 588 1192 689 q 1113 389 1142 486 q 1058 213 1083 292 q 1015 339 1035 279 q 974 465 996 399 q 876 753 926 611 q 760 1029 826 894 q 753 1031 757 1032 q 749 1028 750 1031 q 592 624 669 829 q 439 218 514 419 q 417 332 429 276 q 394 444 406 388 q 341 711 367 578 q 301 975 315 844 q 339 1001 318 990 q 381 1019 360 1013 q 383 1026 385 1021 q 378 1031 382 1032 q 301 1022 339 1025 q 225 1019 263 1019 q 144 1024 185 1019 q 64 1033 104 1029 q 50 1035 57 1035 q 38 1036 44 1035 q 31 1034 33 1038 q 33 1028 29 1031 q 51 1018 43 1022 q 65 1010 58 1014 q 93 994 81 1001 q 117 978 106 988 q 138 953 128 968 q 160 918 149 939 q 199 820 179 879 q 236 690 218 761 q 272 539 254 618 q 306 381 289 460 q 328 271 317 326 q 353 165 340 215 q 377 68 365 114 q 400 -12 389 22 q 405 -17 401 -17 q 411 -14 408 -18 q 453 88 431 31 q 498 203 475 144 q 542 319 521 263 q 582 422 564 376 q 653 610 618 517 q 729 797 689 703 q 779 660 757 726 q 825 521 801 593 q 921 249 871 385 q 1036 -14 971 113 q 1040 -17 1038 -17 q 1046 -14 1044 -17 q 1072 60 1056 11 q 1106 173 1088 110 q 1144 307 1125 236 q 1183 444 1164 378 q 1233 622 1208 533 q 1278 783 1257 711 q 1318 905 1300 856 q 1347 967 1336 954 q 1386 1001 1367 986 q 1433 1013 1406 1015 z "},"X":{"ha":1015,"x_min":31,"x_max":985,"o":"m 985 14 q 895 64 938 26 q 815 153 853 101 q 742 265 776 206 q 675 383 707 325 q 622 478 647 432 q 567 564 596 525 q 605 621 585 588 q 649 693 625 654 q 714 800 679 744 q 786 902 749 856 q 862 980 824 949 q 940 1014 900 1011 q 944 1019 944 1014 q 940 1025 944 1025 q 876 1021 908 1022 q 811 1019 843 1019 q 660 1028 736 1019 q 655 1024 656 1028 q 658 1017 654 1019 q 680 1008 668 1014 q 702 994 692 1001 q 719 976 713 986 q 726 956 726 967 q 716 919 726 940 q 689 871 706 897 q 651 815 672 844 q 610 757 631 786 q 558 686 582 719 q 522 631 535 653 q 487 694 510 657 q 440 768 464 731 q 403 824 422 796 q 370 878 385 853 q 347 927 356 904 q 338 965 338 950 q 355 1003 338 989 q 393 1024 372 1018 q 397 1029 397 1025 q 392 1033 396 1033 q 351 1032 371 1033 q 311 1028 331 1031 q 256 1023 283 1025 q 203 1021 229 1021 q 132 1024 167 1021 q 63 1029 97 1026 q 58 1024 58 1029 q 61 1018 57 1019 q 160 971 115 1008 q 244 881 206 933 q 317 766 283 828 q 378 647 350 704 q 412 583 396 613 q 443 528 428 553 q 401 463 424 501 q 353 381 378 425 q 282 258 319 322 q 203 142 244 194 q 119 53 163 89 q 31 14 75 17 l 31 3 q 98 8 65 6 q 165 11 131 11 q 241 9 203 11 q 318 4 279 7 l 318 15 q 288 22 303 15 q 264 40 274 29 q 282 102 267 65 q 320 181 297 139 q 369 267 343 222 q 421 351 396 311 q 459 413 442 386 q 486 458 476 440 q 494 444 490 451 q 507 424 499 438 q 546 360 524 396 q 592 284 568 324 q 638 205 615 244 q 678 133 660 165 q 707 77 696 100 q 718 47 718 54 q 706 29 718 40 q 686 11 694 18 q 686 12 685 10 q 686 13 688 14 q 685 6 683 10 q 689 3 686 3 q 710 4 700 4 q 732 6 721 4 q 779 10 756 8 q 825 11 803 11 q 878 10 851 11 q 932 6 904 8 q 957 4 944 4 q 983 3 969 4 l 985 14 z "},"Y":{"ha":1050,"x_min":31,"x_max":1019,"o":"m 1019 1017 l 1018 1028 q 951 1022 983 1025 q 883 1019 918 1019 q 819 1020 851 1019 q 757 1028 788 1021 q 751 1024 753 1029 q 754 1017 750 1018 q 781 999 769 1011 q 793 968 793 986 q 781 922 793 949 q 750 863 768 894 q 710 800 732 832 q 669 739 688 768 q 644 701 656 718 q 625 671 632 683 q 581 592 599 629 q 547 522 563 556 l 549 522 q 547 519 549 521 q 546 517 546 518 q 509 575 533 536 q 456 662 485 614 q 397 760 428 710 q 342 856 367 811 q 302 932 318 900 q 286 974 286 964 q 297 997 286 988 q 317 1013 307 1006 q 319 1019 319 1015 q 314 1022 318 1022 q 254 1017 285 1019 q 193 1015 224 1015 q 140 1017 167 1015 q 89 1022 114 1019 q 63 1025 75 1024 q 36 1028 50 1026 q 31 1023 32 1028 q 35 1017 31 1018 q 101 967 60 1008 q 190 867 142 926 q 286 738 238 808 q 374 603 335 668 q 439 484 414 538 q 464 404 464 431 l 464 118 q 437 54 464 82 q 376 14 410 26 q 373 8 372 13 q 378 3 374 3 q 464 7 422 6 q 550 8 506 8 q 719 4 633 8 q 724 9 724 4 q 721 15 725 14 q 679 27 701 19 q 637 47 657 35 q 603 77 617 60 q 590 117 590 94 l 590 425 q 614 509 590 456 q 675 624 638 563 q 760 751 713 686 q 855 871 807 815 q 946 966 903 926 q 1019 1017 989 1006 z "},"Z":{"ha":850,"x_min":26,"x_max":819,"o":"m 819 222 l 810 226 q 774 175 794 203 q 726 124 753 147 q 671 86 700 101 q 611 71 642 71 l 251 69 q 222 70 238 69 q 190 72 206 71 q 517 542 356 307 q 810 1021 679 778 q 810 1026 813 1024 q 804 1029 807 1029 l 235 1029 q 168 1034 201 1029 q 103 1046 135 1039 q 96 1042 96 1046 q 88 993 92 1018 q 82 942 85 968 q 74 880 78 911 q 63 817 69 849 q 65 810 61 813 q 72 811 69 808 q 147 895 118 864 q 208 943 176 926 q 280 965 239 960 q 390 969 321 969 q 451 969 422 969 q 513 971 482 969 q 574 972 544 972 q 633 972 604 972 q 651 969 643 972 q 548 812 600 889 q 443 656 496 735 q 232 336 336 496 q 32 10 128 176 q 36 1 26 1 l 125 1 q 203 2 165 1 q 279 4 242 3 q 344 6 311 6 q 408 7 376 7 q 481 6 444 7 q 553 4 517 6 q 623 2 589 3 q 693 1 657 1 q 736 1 715 1 q 779 3 757 1 q 785 8 785 3 q 787 26 786 18 q 789 43 788 33 q 802 133 796 88 q 819 222 808 178 z "},"[":{"ha":293,"x_min":31,"x_max":263,"o":"m 258 19 l 257 29 q 240 33 250 32 q 217 35 229 33 q 182 40 200 36 q 149 49 164 43 q 124 63 133 54 q 114 88 114 72 l 114 913 q 142 956 114 946 q 203 972 169 967 q 233 977 218 975 q 258 985 247 979 q 261 992 263 988 q 256 996 260 996 l 36 996 q 31 990 31 996 l 31 21 q 36 15 31 15 q 120 13 78 14 q 207 13 163 13 l 211 13 q 235 13 222 13 q 258 19 249 14 z "},"\\":{"ha":651,"x_min":29,"x_max":621,"o":"m 621 114 l 619 118 q 411 447 514 283 q 204 779 308 611 q 148 871 176 825 q 90 961 119 917 q 83 964 88 967 l 33 943 q 32 935 29 940 q 296 503 164 718 q 563 72 428 289 q 568 69 565 69 q 599 85 585 72 q 621 114 614 97 z "},"]":{"ha":301,"x_min":31,"x_max":271,"o":"m 271 21 l 271 990 q 265 996 271 996 l 42 996 q 36 992 38 996 q 39 985 35 988 q 63 977 50 979 q 92 972 76 975 q 125 966 108 969 q 155 956 142 963 q 176 939 168 950 q 185 911 185 928 l 185 94 q 177 66 185 76 q 158 50 169 56 q 131 42 146 44 q 99 39 115 40 q 64 35 81 38 q 35 26 47 33 q 32 19 31 24 q 38 15 33 15 l 265 15 q 271 21 271 15 z "},"_":{"ha":636,"x_min":31,"x_max":606,"o":"m 606 -268 l 606 -214 q 600 -208 606 -208 l 36 -208 q 31 -214 31 -208 l 31 -268 q 36 -274 31 -274 l 600 -274 q 606 -268 606 -274 z "},"`":{"ha":319,"x_min":28,"x_max":289,"o":"m 289 1042 q 255 1063 269 1051 q 224 1086 240 1074 q 162 1132 194 1110 q 99 1154 129 1154 q 63 1144 79 1154 q 33 1118 46 1133 q 35 1110 28 1113 q 55 1102 44 1106 q 75 1094 65 1099 q 178 1056 126 1074 q 286 1032 231 1038 l 289 1042 z "},"a":{"ha":824,"x_min":31,"x_max":793,"o":"m 793 107 l 793 118 q 734 135 760 121 q 692 181 708 149 q 551 488 613 331 q 432 800 489 644 q 417 838 425 819 q 403 876 410 857 q 397 881 401 881 q 392 876 393 881 q 342 738 365 807 q 293 600 318 669 q 219 396 257 497 q 142 193 182 294 l 142 194 q 35 114 111 124 q 31 107 31 113 q 36 103 32 101 q 92 108 64 106 q 147 110 119 110 q 203 108 175 110 q 257 103 231 106 l 257 114 q 222 123 240 117 q 204 150 204 129 q 214 199 204 165 q 236 272 224 233 q 262 345 249 310 q 282 399 275 381 l 497 399 q 547 269 521 332 q 596 140 572 206 l 542 114 q 539 107 538 111 q 544 103 540 103 q 608 108 576 106 q 672 111 640 111 q 697 110 685 111 q 719 108 708 110 q 756 106 739 107 q 793 107 774 104 m 476 444 l 297 444 q 345 590 324 519 q 390 733 367 660 l 476 444 z "},"b":{"ha":585,"x_min":29,"x_max":554,"o":"m 554 324 q 507 457 554 403 q 388 535 460 511 q 452 612 424 568 q 481 707 481 656 q 460 779 481 749 q 409 830 440 810 q 340 860 378 850 q 267 871 303 871 q 225 869 246 871 q 183 865 204 868 q 140 861 161 863 q 97 860 118 860 q 67 861 82 860 q 38 867 53 863 q 31 865 33 868 q 32 858 29 861 q 51 844 39 847 q 74 840 63 842 q 89 838 82 839 q 101 832 96 836 q 109 818 106 828 q 113 790 113 808 l 113 211 q 111 172 113 188 q 103 145 110 156 q 83 128 97 135 q 46 113 69 121 q 42 106 42 111 q 47 101 43 101 q 113 101 81 101 q 179 100 146 101 q 244 99 213 99 q 311 99 278 99 q 403 115 360 99 q 481 160 447 131 q 534 231 514 189 q 554 324 554 272 m 393 692 q 381 618 393 646 q 344 574 368 590 q 288 553 321 558 q 215 547 256 547 l 211 547 l 211 825 q 239 832 225 829 q 267 835 253 835 q 321 823 297 835 q 360 791 344 811 q 385 745 376 771 q 393 692 393 719 m 463 293 q 452 234 463 263 q 423 183 442 206 q 378 148 404 161 q 319 135 351 135 q 284 140 303 135 q 249 156 265 146 q 221 181 232 167 q 210 214 210 196 l 210 504 q 305 491 260 503 q 385 454 350 479 q 442 389 421 429 q 463 293 463 349 z "},"c":{"ha":747,"x_min":31,"x_max":717,"o":"m 717 251 q 716 269 717 261 q 714 286 715 278 q 709 292 713 290 q 703 289 706 293 q 666 219 685 249 q 622 172 647 190 q 565 143 597 153 q 488 133 532 133 q 342 166 408 133 q 226 253 275 199 q 151 377 178 307 q 124 524 124 447 q 147 655 124 596 q 212 756 169 714 q 313 820 254 797 q 444 843 372 843 q 527 831 488 843 q 598 797 567 819 q 651 739 629 774 q 679 658 672 704 q 685 654 681 654 q 690 658 689 654 q 703 752 697 704 q 711 849 708 800 q 706 854 711 854 q 653 860 679 857 q 599 868 626 864 q 526 878 563 874 q 450 882 489 882 q 277 855 354 882 q 145 776 200 828 q 60 647 90 724 q 31 472 31 571 q 60 319 31 389 q 140 200 89 250 q 263 122 192 150 q 417 94 333 94 q 549 101 483 94 q 681 119 614 108 q 685 122 685 119 q 708 185 700 151 q 717 251 717 218 z "},"d":{"ha":825,"x_min":26,"x_max":794,"o":"m 794 493 q 766 640 794 571 q 688 759 738 708 q 569 839 638 810 q 419 868 500 868 q 365 867 393 868 q 310 864 336 867 q 254 860 282 861 q 199 858 226 858 q 151 860 176 858 q 106 863 126 861 q 71 865 88 864 q 36 865 54 865 q 32 857 26 865 q 44 847 36 850 q 63 843 53 844 q 96 831 79 840 q 113 790 113 822 l 113 217 q 102 150 113 172 q 46 118 92 128 q 42 112 42 117 q 47 107 43 107 q 128 106 88 108 q 210 100 169 103 q 284 94 246 97 q 358 92 322 92 q 536 116 456 92 q 674 190 617 140 q 763 315 731 239 q 794 493 794 390 m 700 454 q 675 315 700 375 q 604 216 650 256 q 495 156 558 176 q 356 136 432 136 q 291 140 318 136 q 246 156 264 143 q 219 192 228 168 q 210 256 210 215 l 210 807 q 264 819 236 817 q 319 822 292 822 q 473 797 403 822 q 593 723 543 771 q 672 607 643 675 q 700 454 700 539 z "},"e":{"ha":514,"x_min":31,"x_max":483,"o":"m 483 236 l 472 239 q 427 166 461 192 q 344 140 393 140 q 270 156 308 140 q 211 203 232 172 l 211 489 l 253 489 q 285 489 264 489 q 327 487 306 489 q 367 481 349 485 q 393 471 386 478 q 403 456 400 464 q 408 439 406 447 q 413 424 411 431 q 422 410 415 417 q 428 408 425 407 q 432 414 432 410 q 436 449 435 431 q 440 483 438 467 q 445 519 443 500 q 449 556 447 539 q 442 561 449 564 q 411 549 426 557 q 389 540 400 544 q 371 536 378 536 l 210 536 l 210 821 l 319 821 q 394 806 364 821 q 428 742 425 790 q 433 737 428 738 q 439 740 438 736 q 452 803 446 772 q 463 871 458 835 q 456 876 463 879 q 444 872 450 874 q 432 867 438 869 l 36 867 q 31 863 32 867 q 33 857 31 860 q 55 847 44 850 q 74 840 65 843 q 102 826 89 835 q 115 790 115 818 l 115 213 q 113 177 115 194 q 104 146 111 160 q 84 123 97 132 q 50 114 71 114 l 50 103 q 126 105 88 104 q 201 106 164 106 q 256 105 229 106 q 310 104 282 104 q 374 103 342 104 q 439 103 407 103 q 457 107 446 103 l 458 108 q 464 113 464 108 q 472 174 468 144 q 483 236 476 204 z "},"f":{"ha":508,"x_min":31,"x_max":478,"o":"m 476 869 q 474 876 478 874 q 468 876 471 879 q 409 861 443 863 q 343 861 375 860 q 327 862 335 861 q 313 863 319 863 l 214 863 q 38 867 125 863 q 32 863 33 867 q 35 857 31 860 q 56 847 46 850 q 74 840 67 843 q 103 828 90 836 q 115 789 115 821 l 115 208 q 115 167 115 183 q 108 141 114 151 q 88 124 101 131 q 49 114 74 118 q 45 108 44 113 q 50 103 46 103 l 58 103 q 90 103 74 103 q 122 106 106 104 q 150 108 136 107 q 178 110 164 110 q 206 109 192 110 q 235 107 219 108 q 264 104 250 106 q 293 103 278 103 l 303 103 l 303 114 q 267 122 283 114 q 238 144 250 131 q 218 176 225 158 q 211 211 211 194 l 211 489 l 328 489 q 397 472 372 489 q 419 408 421 454 q 424 403 419 404 q 431 407 429 403 q 442 480 438 443 q 450 556 447 517 q 447 561 450 560 q 440 560 443 563 q 421 543 433 551 q 399 535 408 535 l 211 535 l 211 807 q 242 808 225 807 q 272 813 258 810 q 309 817 292 815 q 346 819 326 819 q 415 801 390 819 q 440 736 440 782 q 445 731 440 732 q 451 735 450 731 l 476 869 z "},"g":{"ha":813,"x_min":31,"x_max":782,"o":"m 782 468 l 781 479 q 538 483 660 483 q 532 480 533 483 q 535 474 531 476 q 553 465 544 468 q 569 460 563 463 q 602 446 588 454 q 617 414 617 438 l 617 183 q 558 153 593 163 q 490 144 522 144 q 345 174 413 144 q 228 256 278 204 q 149 376 178 307 q 121 524 121 446 q 147 653 121 594 q 217 755 172 713 q 324 821 263 797 q 456 844 385 844 q 535 835 497 844 q 605 804 574 825 q 657 751 636 783 q 686 675 678 719 q 692 671 688 671 q 697 675 696 671 q 699 690 699 682 q 701 706 700 699 q 713 776 707 742 q 718 847 718 810 q 713 853 718 853 q 678 858 694 856 q 642 863 661 860 q 546 876 594 869 q 449 882 497 882 q 286 858 363 882 q 153 785 210 833 q 63 667 96 738 q 31 504 31 596 q 63 322 31 400 q 155 194 96 244 q 295 117 214 143 q 474 92 376 92 q 597 101 535 92 q 711 149 660 110 q 714 153 714 151 l 714 411 q 735 451 714 439 q 782 468 756 463 z "},"h":{"ha":846,"x_min":31,"x_max":815,"o":"m 815 111 q 747 143 768 119 q 726 214 726 167 l 726 783 q 744 828 726 818 q 793 844 763 839 q 797 851 797 846 q 792 856 796 856 q 735 853 764 854 q 679 853 707 853 q 550 857 617 853 q 545 852 546 857 q 549 846 544 847 q 559 843 554 844 q 569 840 564 842 q 612 824 594 833 q 629 782 629 815 l 629 546 l 204 546 l 204 788 q 224 831 204 815 q 269 846 244 846 q 274 851 274 846 q 269 857 274 857 l 240 857 q 193 856 217 857 q 146 856 169 856 q 31 860 89 856 l 31 849 q 83 832 58 847 q 107 786 107 817 l 107 194 q 105 158 107 172 q 96 135 103 144 q 75 122 89 126 q 39 113 61 117 q 35 106 35 111 q 40 101 36 101 q 53 101 46 101 q 67 100 61 100 q 103 99 85 99 q 138 99 121 99 q 173 99 153 99 q 208 100 193 100 q 250 101 231 101 q 293 101 271 101 q 297 107 297 101 q 293 113 297 113 q 203 208 203 121 l 203 500 l 629 500 l 629 211 q 617 146 629 167 q 561 113 604 125 q 558 106 557 111 q 563 101 558 101 q 616 103 590 103 q 668 104 642 104 q 814 100 740 104 l 815 111 z "},"i":{"ha":325,"x_min":31,"x_max":294,"o":"m 294 101 l 294 113 q 224 140 244 117 q 204 215 204 163 l 204 788 q 223 833 204 824 q 272 850 242 843 q 275 857 276 851 q 269 861 274 863 q 213 856 242 857 q 154 854 183 854 q 94 856 124 854 q 36 860 65 857 q 31 855 32 860 q 35 849 31 850 q 85 832 64 844 q 107 788 107 819 l 107 211 q 91 149 107 175 q 40 111 75 124 q 37 105 36 110 q 42 100 38 100 q 115 102 79 101 q 189 103 151 103 q 241 102 215 103 q 294 101 267 101 z "},"j":{"ha":308,"x_min":-25,"x_max":281,"o":"m 281 847 l 279 858 q 229 859 254 860 q 181 858 204 858 q 155 858 168 858 q 129 857 142 857 q 39 861 82 857 q 33 858 35 861 q 36 851 32 854 q 57 842 50 844 q 71 838 64 840 q 102 823 89 832 q 115 785 115 814 l 115 178 q 108 81 115 122 q 83 3 100 39 q 40 -67 67 -33 q -22 -139 14 -100 q -22 -147 -25 -142 q -15 -149 -19 -151 q 72 -94 31 -126 q 144 -22 113 -62 q 193 67 175 19 q 211 168 211 114 l 211 785 q 231 830 211 818 q 281 847 250 842 z "},"k":{"ha":808,"x_min":31,"x_max":778,"o":"m 778 108 l 775 118 q 682 147 732 118 q 580 222 632 176 q 477 322 528 268 q 382 425 426 376 q 333 480 356 454 q 290 525 310 506 q 334 569 310 543 q 382 622 358 594 q 450 694 413 656 q 526 765 488 732 q 603 822 565 799 q 674 849 640 844 q 677 855 678 850 q 672 860 676 860 q 626 862 649 861 q 582 863 604 863 q 528 863 554 863 q 474 865 501 863 q 469 857 464 865 q 476 829 476 843 q 460 783 476 808 q 419 728 444 757 q 363 668 394 699 q 301 610 332 638 q 253 564 276 586 q 214 522 229 542 q 212 649 213 590 q 210 778 211 708 q 229 826 210 806 q 276 847 249 846 q 281 853 281 847 q 276 858 281 858 q 269 859 274 858 q 263 860 265 860 q 215 860 239 861 q 167 858 190 860 q 130 856 147 857 q 96 856 113 856 q 66 856 81 856 q 36 858 51 857 q 31 853 32 858 q 35 847 31 849 q 88 824 63 842 q 113 779 113 807 l 113 211 q 111 171 113 188 q 103 142 110 154 q 83 123 97 131 q 44 111 69 115 q 41 105 40 110 q 46 100 42 100 q 107 105 78 103 q 167 107 136 107 q 263 103 214 107 q 278 101 271 101 q 294 100 286 101 q 300 103 299 99 q 297 111 301 108 q 274 122 286 118 q 251 129 261 126 q 234 138 242 133 q 221 151 226 142 q 213 175 215 160 q 210 214 210 190 q 210 347 210 282 q 213 479 211 411 q 260 429 236 457 q 317 365 285 401 q 404 267 358 318 q 498 175 450 217 q 595 107 546 133 q 690 81 644 81 q 736 88 714 81 q 778 108 758 96 z "},"l":{"ha":540,"x_min":31,"x_max":510,"o":"m 510 246 l 499 249 q 431 170 475 200 q 333 140 386 140 q 242 172 279 140 q 206 261 206 203 l 206 778 q 229 827 206 807 q 282 853 253 847 q 285 859 286 854 q 281 864 285 864 q 133 860 206 860 q 82 860 107 860 q 31 861 57 860 l 31 850 q 86 829 64 849 q 108 776 108 810 l 108 211 q 104 182 108 199 q 92 151 100 165 q 71 126 83 136 q 43 115 58 117 q 39 110 39 115 q 43 104 39 104 q 58 105 50 104 q 72 106 65 106 q 164 108 118 107 q 256 110 210 110 q 367 108 313 110 q 478 100 422 106 q 482 102 478 100 q 486 108 486 104 q 485 114 486 113 q 502 170 499 142 q 508 229 506 199 q 509 238 508 233 q 510 246 510 242 z "},"m":{"ha":1063,"x_min":31,"x_max":1032,"o":"m 1032 115 q 1010 122 1021 121 q 990 125 1000 122 q 957 134 971 128 q 928 163 943 140 q 914 205 921 171 q 899 289 907 239 q 885 399 892 339 q 871 524 878 460 q 858 649 864 588 q 847 761 851 710 q 841 830 843 800 q 836 876 839 860 q 833 881 836 881 q 828 879 831 882 q 713 674 767 789 q 610 446 658 558 q 565 342 588 394 q 519 246 542 290 q 492 304 507 269 q 453 388 476 339 q 383 535 421 456 q 309 685 344 614 q 243 809 274 756 q 196 881 213 863 q 190 883 193 883 q 186 878 186 882 q 181 827 183 863 q 172 746 178 792 q 160 630 167 693 q 146 501 153 567 q 131 374 139 436 q 117 262 124 311 q 106 181 111 213 q 99 144 101 149 q 78 126 89 129 q 51 119 67 122 q 35 117 46 119 q 32 110 31 115 q 38 106 33 104 q 65 108 53 108 q 93 108 79 108 q 132 108 113 108 q 171 106 151 107 q 209 103 190 104 q 247 103 228 103 q 253 107 251 103 q 250 114 254 111 q 238 119 247 115 q 222 125 228 122 q 192 141 204 132 q 179 175 179 150 q 188 347 179 263 q 207 518 196 432 q 215 583 211 550 q 224 650 219 615 q 265 563 247 603 q 304 475 282 524 q 392 290 346 382 q 503 108 439 197 q 508 106 506 106 q 513 108 511 106 q 545 177 529 143 q 578 246 561 211 q 675 451 626 350 q 776 654 724 553 q 784 569 779 606 q 794 485 789 532 q 812 330 804 407 q 819 174 819 253 q 815 150 819 163 q 807 125 811 138 q 805 119 806 122 q 803 114 804 117 q 808 107 800 107 q 918 104 863 104 q 1031 104 975 104 l 1032 115 z "},"n":{"ha":876,"x_min":31,"x_max":846,"o":"m 846 850 l 843 861 q 828 862 836 861 q 813 863 819 863 q 774 863 793 864 q 738 863 756 863 q 679 863 708 863 q 619 867 651 863 q 615 864 617 868 q 615 857 613 860 q 631 848 622 850 q 651 844 640 846 q 671 840 661 843 q 689 830 681 838 q 702 808 697 822 q 707 769 707 793 q 708 642 707 710 q 711 515 710 575 q 713 388 713 450 q 714 261 714 325 l 714 257 q 426 572 568 419 q 133 881 285 724 q 129 882 132 883 q 125 878 126 881 l 114 856 l 114 206 q 101 159 114 174 q 71 136 88 144 q 53 126 63 132 q 33 111 44 121 q 33 104 31 108 q 39 101 35 100 q 92 109 65 106 q 143 113 118 113 q 183 111 163 113 q 222 107 203 110 q 249 104 236 106 q 276 101 263 103 q 281 105 281 101 q 279 111 282 108 q 253 126 264 122 q 231 132 242 129 q 212 137 221 133 q 197 149 203 140 q 186 172 190 157 q 182 210 182 186 q 181 317 182 264 q 176 422 179 369 q 172 528 174 475 q 171 633 171 581 q 175 706 171 668 q 210 666 194 685 q 244 626 225 647 q 364 490 301 560 q 491 351 426 419 q 622 216 556 282 q 756 93 689 150 q 762 92 758 90 q 765 97 765 94 q 775 255 772 176 q 778 414 778 333 l 778 471 l 776 806 q 798 835 776 826 q 839 849 819 843 q 842 849 842 850 q 846 850 843 849 z "},"o":{"ha":856,"x_min":31,"x_max":825,"o":"m 825 460 q 792 629 825 549 q 703 769 760 710 q 569 860 646 828 q 404 886 493 893 l 386 885 q 219 831 288 864 q 110 748 151 799 q 49 624 68 697 q 31 450 31 551 q 69 318 31 383 q 165 201 107 253 q 294 118 224 150 q 429 86 364 86 q 580 114 508 86 q 706 192 651 142 q 792 310 760 242 q 825 460 825 379 m 732 461 q 713 335 732 394 q 658 230 694 275 q 567 158 621 185 q 442 131 513 131 q 308 165 367 131 q 209 253 250 199 q 147 376 168 308 q 126 514 126 444 q 147 640 126 581 q 204 744 167 699 q 297 815 242 789 q 422 840 351 840 q 555 807 497 840 q 652 719 613 774 q 712 597 692 665 q 732 461 732 529 z "},"p":{"ha":556,"x_min":31,"x_max":525,"o":"m 525 682 q 511 769 525 735 q 471 824 497 804 q 407 853 444 844 q 322 861 369 861 l 200 861 q 119 862 160 861 q 36 867 79 863 q 31 862 32 867 q 35 856 31 857 q 88 830 63 849 q 113 782 113 811 l 113 213 q 112 172 113 189 q 105 143 111 154 q 85 125 99 132 q 46 114 71 118 q 42 108 42 113 q 47 103 43 103 q 93 101 71 101 q 140 101 117 101 l 299 101 q 303 107 303 101 q 299 113 303 113 q 231 135 251 115 q 210 200 210 154 l 210 813 q 282 829 243 829 q 349 812 319 829 q 400 767 379 794 q 432 705 421 739 q 443 636 443 671 q 397 509 443 558 q 272 460 351 460 l 249 460 q 244 455 244 460 q 247 449 243 450 q 307 442 279 442 q 394 463 354 442 q 464 517 435 483 q 509 594 493 551 q 525 682 525 638 z "},"q":{"ha":869,"x_min":31,"x_max":1489,"o":"m 1489 -32 l 1483 -22 q 1377 -56 1432 -46 q 1267 -67 1322 -67 q 1106 -47 1185 -67 q 951 3 1026 -28 q 802 75 875 35 q 661 156 729 115 q 787 307 743 215 q 831 499 831 399 q 799 651 831 582 q 715 771 768 721 q 589 848 661 821 q 436 875 517 875 q 278 844 351 875 q 149 760 204 814 q 63 633 94 706 q 31 475 31 560 q 60 313 31 386 q 142 185 89 239 q 267 103 194 132 q 429 74 340 74 q 506 82 465 74 q 578 106 546 90 q 599 99 585 106 q 631 85 614 93 q 667 67 649 76 q 700 49 685 57 l 700 50 q 717 40 710 44 q 728 33 724 36 q 841 -20 782 6 q 961 -66 900 -46 q 1085 -98 1022 -86 q 1210 -110 1147 -110 q 1354 -90 1283 -110 q 1489 -32 1425 -71 m 725 492 q 708 374 725 431 q 658 268 690 317 q 581 182 626 219 q 478 122 535 144 q 342 174 406 136 q 231 268 279 213 q 156 392 183 324 q 128 533 128 460 q 150 655 128 600 q 212 749 172 710 q 307 808 251 788 q 429 829 363 829 q 555 801 500 829 q 647 727 610 774 q 705 619 685 681 q 725 492 725 558 z "},"r":{"ha":822,"x_min":31,"x_max":792,"o":"m 792 107 l 788 118 q 706 133 746 113 q 628 188 665 153 q 556 267 590 224 q 492 353 522 311 q 453 406 471 381 q 419 449 435 432 q 502 551 465 492 q 539 678 539 611 q 519 764 539 728 q 468 822 500 800 q 394 855 436 844 q 310 865 353 865 l 36 865 q 31 860 32 865 q 35 854 31 856 q 90 822 67 846 q 113 765 113 797 l 113 211 q 93 151 113 179 q 44 110 74 124 q 42 102 40 107 q 49 99 44 97 q 110 106 81 103 q 172 108 140 108 q 235 106 204 108 q 299 101 267 104 l 299 113 q 234 145 258 117 q 210 214 210 174 l 210 411 q 231 414 221 414 q 253 414 242 414 q 320 400 290 414 q 376 363 350 386 q 423 312 401 340 q 464 254 444 283 q 508 192 485 222 q 557 138 531 161 q 617 99 583 114 q 692 83 650 83 q 742 90 717 83 q 792 107 768 96 m 440 626 q 410 509 440 551 q 303 467 381 467 q 257 468 279 467 q 211 474 235 469 l 211 819 q 243 828 226 826 q 276 831 260 831 q 347 812 317 831 q 399 764 378 793 q 430 699 419 735 q 440 626 440 663 z "},"s":{"ha":458,"x_min":31,"x_max":428,"o":"m 428 304 q 414 374 428 342 q 378 434 400 406 q 327 488 356 463 q 269 538 299 514 q 218 581 243 560 q 174 625 193 603 q 144 671 156 647 q 132 722 132 694 q 167 809 132 775 q 256 843 203 843 q 338 808 307 843 q 381 725 369 774 q 386 721 382 721 q 392 725 390 721 q 408 865 403 797 q 404 871 408 868 q 303 885 358 885 q 218 874 264 885 q 133 842 172 864 q 68 787 94 821 q 42 706 42 753 q 56 643 42 674 q 92 583 69 613 q 143 524 114 553 q 201 468 172 496 q 256 415 229 442 q 303 363 282 389 q 336 310 324 336 q 349 258 349 285 q 335 208 349 231 q 299 169 321 185 q 251 144 278 153 q 200 136 225 136 q 148 144 174 136 q 103 167 122 151 q 71 206 83 183 q 58 257 58 228 l 58 278 q 53 282 58 282 q 47 278 47 282 l 40 244 q 34 213 38 229 q 31 179 31 196 q 42 135 31 153 q 73 107 54 118 q 115 91 92 96 q 158 86 138 86 q 249 102 201 86 q 337 147 297 118 q 402 215 376 175 q 428 304 428 256 z "},"t":{"ha":696,"x_min":31,"x_max":665,"o":"m 665 867 l 658 872 q 649 869 653 871 q 639 867 644 868 q 600 860 615 860 l 156 860 q 109 863 131 860 q 67 881 88 867 q 58 878 61 885 q 53 859 56 868 q 47 840 50 850 q 36 801 42 821 q 31 758 31 781 l 33 740 q 38 735 33 736 q 43 738 42 733 q 79 789 54 767 q 138 811 104 811 l 304 811 l 304 208 q 303 169 304 185 q 294 143 301 153 q 274 127 288 133 q 238 115 261 121 q 234 108 233 114 q 239 104 235 103 q 293 108 267 107 q 347 110 319 110 q 418 108 383 110 q 489 103 453 106 q 494 108 493 103 q 490 114 494 113 q 426 149 451 121 q 401 217 401 176 l 401 813 l 524 813 q 601 797 568 813 q 644 732 633 781 q 649 728 646 728 q 654 732 653 728 q 664 799 663 763 q 665 867 665 835 z "},"u":{"ha":815,"x_min":31,"x_max":785,"o":"m 785 847 l 783 858 q 733 859 758 860 q 685 858 708 858 q 662 858 674 858 q 639 857 650 857 q 563 861 601 857 q 558 856 558 861 q 561 850 557 851 q 621 824 600 843 q 642 765 642 806 l 644 346 q 628 258 644 297 q 583 192 613 219 q 514 149 554 164 q 426 133 474 133 q 341 149 381 133 q 272 191 301 164 q 227 256 243 218 q 211 342 211 294 l 214 767 q 237 813 214 792 q 282 846 260 835 q 285 853 286 849 q 279 857 283 857 q 236 856 257 856 q 193 856 215 856 q 36 860 115 856 q 31 855 32 860 q 35 849 31 850 q 94 822 72 839 q 115 765 115 806 l 115 625 q 115 561 115 596 q 114 490 114 526 q 115 429 114 460 q 116 373 115 399 q 119 327 117 347 q 125 297 121 307 q 172 213 140 251 q 243 144 203 174 q 330 99 283 115 q 425 83 376 83 q 545 108 492 83 q 636 174 599 132 q 694 274 674 217 q 715 394 715 331 l 715 767 q 735 819 715 796 q 785 847 754 842 z "},"v":{"ha":864,"x_min":31,"x_max":833,"o":"m 833 849 l 832 860 q 819 859 825 860 q 806 857 813 858 l 807 857 q 722 853 765 853 q 643 857 682 853 l 644 857 q 631 858 638 858 q 617 860 624 858 q 613 856 614 861 q 614 849 611 850 q 628 845 618 847 q 647 840 638 843 q 664 831 657 836 q 671 821 671 826 q 653 731 671 788 q 610 608 636 674 q 553 472 583 542 q 497 343 524 403 q 456 247 472 286 q 437 297 449 268 q 406 371 425 326 q 353 502 381 432 q 301 637 325 572 q 262 751 278 701 q 246 819 246 800 q 252 829 246 825 q 267 837 258 833 q 283 842 275 840 q 296 844 292 844 q 300 850 300 844 q 296 856 300 856 q 210 856 253 854 q 126 860 168 857 q 83 862 104 861 q 38 864 61 863 q 32 860 33 864 q 35 854 31 857 q 57 844 46 847 q 76 839 68 842 q 104 829 92 835 q 128 804 117 824 q 210 638 175 728 q 278 451 244 547 q 346 267 310 358 q 433 89 382 176 q 439 86 436 86 q 443 89 442 86 q 462 130 450 103 q 489 192 474 157 q 522 270 504 228 q 560 358 540 313 q 626 514 592 435 q 688 660 660 593 q 738 771 717 726 q 764 822 758 815 q 788 838 775 833 q 814 844 800 842 q 833 849 819 846 z "},"w":{"ha":1097,"x_min":29,"x_max":1067,"o":"m 1067 844 l 1067 856 q 1029 854 1047 854 q 994 854 1013 854 q 923 856 958 854 q 851 860 888 857 q 847 855 847 860 q 850 849 846 850 q 867 844 857 847 q 888 836 878 842 q 904 824 897 831 q 911 808 911 817 q 899 681 911 751 q 869 538 888 611 q 830 392 851 464 q 790 261 808 319 q 759 353 774 308 q 729 444 744 397 q 655 657 693 551 q 571 858 617 763 q 565 860 568 861 q 560 857 561 860 q 444 564 500 708 q 333 268 389 419 q 319 345 325 311 q 303 424 313 379 q 264 619 283 522 q 233 817 244 715 q 260 836 244 828 q 290 850 275 844 q 293 857 294 851 q 288 861 292 863 q 175 853 229 853 q 119 856 146 853 q 63 863 92 860 q 50 864 56 864 q 38 865 44 864 q 31 863 33 867 q 33 856 29 858 q 47 848 40 851 q 58 842 53 844 q 95 818 81 829 q 125 776 110 807 q 185 601 158 710 q 236 375 213 492 q 268 222 251 296 q 303 90 285 147 q 308 85 304 86 q 314 89 311 85 q 378 247 347 165 q 439 407 410 329 q 492 546 465 476 q 547 683 518 615 q 581 587 567 632 q 614 489 596 542 q 685 283 649 385 q 771 89 722 182 q 777 87 774 86 q 782 90 781 88 q 801 144 790 111 q 824 220 811 178 q 849 311 836 263 q 876 411 863 360 q 913 544 894 478 q 947 665 931 610 q 978 759 964 719 q 1003 811 993 799 q 1032 835 1014 822 q 1067 844 1050 847 z "},"x":{"ha":765,"x_min":31,"x_max":735,"o":"m 735 114 q 669 151 700 124 q 609 217 638 179 q 555 299 581 254 q 506 386 529 343 q 467 455 486 421 q 428 518 449 489 q 455 560 440 536 q 486 611 469 583 q 535 690 510 649 q 588 765 561 731 q 644 822 615 800 q 701 847 672 844 l 701 858 q 608 854 656 854 q 551 856 579 854 q 494 861 524 858 q 490 856 490 861 q 493 850 489 851 q 525 833 507 844 q 543 806 543 821 q 535 778 543 794 q 514 744 526 763 q 486 703 501 725 q 456 661 471 682 q 419 609 436 633 q 393 568 403 585 q 367 615 383 588 q 333 668 350 642 q 309 708 322 686 q 285 749 296 729 q 266 787 274 769 q 258 813 258 804 q 271 840 258 829 q 299 854 283 850 q 302 860 303 856 q 297 865 301 865 q 265 864 282 865 q 233 861 249 863 q 195 857 214 858 q 157 856 176 856 q 105 857 131 856 q 54 861 79 858 q 49 856 50 861 q 53 850 49 851 q 124 815 90 843 q 186 748 157 788 q 240 663 215 708 q 286 576 265 618 q 307 535 296 557 q 331 490 318 514 q 303 444 319 471 q 269 388 286 417 q 216 296 244 343 q 158 209 188 249 q 96 142 128 169 q 31 114 64 115 l 31 103 q 83 107 58 106 q 136 108 108 108 q 189 107 164 108 q 242 103 214 106 l 242 114 q 204 132 218 117 q 217 178 206 150 q 246 236 229 206 q 282 299 263 267 q 319 361 301 332 q 346 402 333 383 q 367 436 358 421 q 374 423 371 429 q 388 401 378 417 q 430 331 406 371 q 476 253 454 292 q 515 184 499 215 q 536 139 532 153 l 513 113 q 511 106 510 110 q 517 103 513 103 q 567 107 542 106 q 619 108 592 108 q 677 107 649 108 q 733 103 706 106 l 735 114 z "},"y":{"ha":792,"x_min":31,"x_max":761,"o":"m 761 849 l 760 860 q 753 859 757 860 q 746 858 749 858 q 697 854 722 856 q 646 853 672 853 q 606 854 626 853 q 568 860 586 856 q 563 856 564 861 q 565 849 561 851 q 584 835 576 843 q 592 814 592 826 q 580 781 592 806 q 550 723 568 756 q 511 656 532 690 q 474 592 490 621 q 436 529 454 558 q 410 485 418 500 q 358 569 390 517 q 296 674 326 622 q 243 767 265 726 q 221 818 221 808 q 228 833 221 826 q 244 847 236 840 q 245 847 246 849 q 246 847 244 846 q 247 853 249 850 q 242 857 246 857 q 161 853 200 853 q 99 855 129 853 q 36 860 69 857 q 31 855 32 860 q 35 849 31 850 q 83 813 53 843 q 149 740 114 783 q 219 644 183 696 q 283 544 254 593 q 331 457 313 496 q 349 399 349 418 l 349 188 q 330 142 349 161 q 288 113 311 122 q 284 106 283 110 q 289 101 285 101 q 357 104 324 104 q 428 104 392 104 q 483 104 456 104 q 540 103 513 104 q 545 108 544 103 q 542 114 546 113 q 511 122 528 117 q 481 137 494 128 q 457 158 467 146 q 447 186 447 169 l 447 414 q 465 476 447 438 q 509 561 482 515 q 571 654 536 607 q 641 742 606 701 q 708 812 676 783 q 761 849 739 840 z "},"z":{"ha":647,"x_min":26,"x_max":617,"o":"m 617 267 l 607 271 q 581 233 596 253 q 546 197 565 214 q 505 169 526 181 q 461 158 483 158 l 196 157 q 175 157 185 157 q 154 158 165 157 q 394 505 276 332 q 608 854 513 678 q 608 860 611 857 q 603 863 606 863 q 538 862 575 863 q 469 860 501 861 q 390 857 429 858 q 310 856 350 856 q 194 860 251 856 q 86 876 136 865 q 79 872 79 879 q 74 836 76 857 q 69 800 72 815 q 64 755 67 779 q 54 706 61 731 q 57 699 53 701 q 64 700 61 697 q 119 762 97 739 q 163 797 140 785 q 217 813 186 810 q 299 817 247 817 q 344 817 322 817 q 388 818 365 818 l 478 818 q 483 818 481 818 q 489 817 486 818 q 413 701 450 757 q 335 585 375 644 q 180 350 257 467 q 32 111 103 233 q 36 103 26 103 l 103 103 q 150 102 126 103 q 197 101 174 101 q 285 101 242 101 q 372 100 328 100 q 585 104 478 100 q 590 108 590 104 q 592 117 592 113 q 593 125 592 121 q 603 196 600 161 q 617 267 607 231 z "},"{":{"ha":347,"x_min":31,"x_max":317,"o":"m 314 22 q 256 68 278 39 q 224 133 235 97 q 210 208 213 169 q 207 283 207 247 l 207 317 q 208 340 207 328 q 208 364 208 351 q 206 417 208 390 q 197 467 204 443 q 176 510 190 490 q 140 542 163 529 q 181 575 167 554 q 201 621 194 596 q 208 674 207 646 q 210 726 210 701 l 210 760 q 210 828 210 793 q 221 894 211 864 q 251 947 231 925 q 313 978 272 969 q 316 984 317 979 q 311 989 315 989 q 204 963 242 986 q 149 902 167 939 q 128 821 132 865 q 124 732 125 776 q 122 667 124 699 q 110 609 119 635 q 84 566 101 583 q 35 543 67 549 q 31 538 31 542 q 35 532 31 535 q 62 522 50 525 q 83 517 74 519 q 101 510 94 514 q 112 499 108 507 q 117 475 115 490 q 118 431 118 460 l 118 328 q 124 225 118 275 q 149 133 129 175 q 206 60 168 92 q 310 11 244 28 l 314 22 z "},"|":{"ha":103,"x_min":31,"x_max":72,"o":"m 72 6 l 72 1061 q 67 1067 72 1067 l 36 1067 q 31 1061 31 1067 l 31 6 q 36 0 31 0 l 67 0 q 72 6 72 0 z "},"}":{"ha":346,"x_min":31,"x_max":315,"o":"m 315 535 q 297 544 308 542 q 275 549 286 547 q 245 558 258 551 q 232 593 232 565 q 233 623 232 608 q 233 653 233 638 l 233 718 q 228 815 233 768 q 202 901 222 863 q 144 964 182 939 q 42 996 106 989 q 36 992 38 996 q 39 985 35 988 q 43 982 42 983 q 47 979 44 981 l 47 981 q 81 958 64 969 q 111 931 97 946 q 134 899 125 917 q 143 861 143 882 q 143 833 143 849 q 142 804 143 819 q 140 769 140 788 q 139 732 139 751 q 153 622 139 675 q 211 542 167 569 q 186 515 199 533 q 164 478 174 497 q 149 439 154 458 q 143 408 143 419 q 143 379 143 396 q 144 350 143 364 q 146 315 146 332 q 146 279 146 299 q 142 201 146 240 q 126 128 138 163 q 92 68 114 94 q 35 28 71 42 q 32 20 31 25 q 38 17 33 15 q 139 61 100 31 q 199 133 178 92 q 228 224 221 174 q 235 332 235 275 q 234 348 235 339 q 233 368 233 357 l 233 421 q 234 465 233 443 q 240 499 235 486 q 260 520 247 517 q 288 524 272 524 q 300 524 294 524 q 313 525 306 524 l 315 535 z "},"":{"ha":172,"x_min":31,"x_max":142,"o":"m 142 176 q 120 228 142 210 q 67 246 99 247 l 38 244 q 68 139 68 194 q 55 51 68 94 q 31 -36 42 7 q 68 8 49 -18 q 104 62 88 33 q 131 120 121 90 q 142 176 142 150 z "},"":{"ha":719,"x_min":31,"x_max":689,"o":"m 688 854 l 686 897 q 634 928 663 917 q 574 940 606 940 q 454 897 510 940 q 358 792 399 854 q 293 659 317 729 q 269 533 269 589 q 270 515 269 524 q 272 497 271 507 q 260 495 265 496 q 247 494 254 494 q 212 497 232 494 q 173 498 192 500 q 142 487 154 496 q 129 453 129 478 q 199 456 164 456 q 268 453 233 457 q 245 341 250 401 q 238 219 240 281 q 228 97 235 157 q 202 -16 222 36 q 142 -107 182 -68 q 31 -164 101 -146 q 172 -133 118 -164 q 256 -53 225 -103 q 301 62 288 -3 q 320 195 314 126 q 333 332 326 264 q 354 457 339 400 q 401 463 375 463 q 455 458 429 463 q 508 454 481 454 q 569 503 561 454 q 527 499 557 500 q 464 497 497 497 q 401 499 431 497 q 358 503 371 500 q 351 527 353 514 q 350 553 350 540 q 367 645 350 588 q 411 758 383 703 q 476 854 439 814 q 556 894 514 894 q 597 879 579 894 q 628 841 615 864 q 648 793 640 818 q 660 750 656 768 q 683 799 678 769 q 688 854 689 829 z "},"":{"ha":321,"x_min":31,"x_max":290,"o":"m 290 175 q 269 228 290 208 q 215 246 249 249 l 186 244 q 218 139 218 196 q 204 50 218 93 q 179 -36 190 7 q 217 6 197 -19 q 253 61 236 32 q 280 120 269 90 q 290 175 290 150 m 142 176 q 120 228 142 210 q 67 246 99 247 l 38 244 q 68 139 68 194 q 55 51 68 94 q 31 -36 42 7 q 68 8 49 -18 q 104 62 88 33 q 131 120 121 90 q 142 176 142 150 z "},"":{"ha":940,"x_min":31,"x_max":910,"o":"m 910 149 q 892 197 910 175 q 846 218 874 218 q 806 200 821 218 q 792 158 792 182 q 804 113 792 136 q 843 89 817 89 q 888 106 867 89 q 910 149 910 124 m 529 149 q 511 197 529 175 q 465 218 493 218 q 426 200 440 218 q 411 158 411 182 q 424 113 411 136 q 463 89 436 89 q 508 106 486 89 q 529 149 529 124 m 149 149 q 131 197 149 175 q 85 218 113 218 q 45 200 60 218 q 31 158 31 182 q 43 113 31 136 q 82 89 56 89 q 127 106 106 89 q 149 149 149 124 z "},"":{"ha":615,"x_min":31,"x_max":585,"o":"m 585 849 l 581 856 l 560 865 q 556 864 557 865 q 448 808 507 825 q 326 792 389 792 q 351 934 329 858 q 404 1067 374 1010 q 401 1074 407 1071 l 385 1089 q 383 1090 383 1089 q 381 1090 382 1090 q 306 1082 344 1082 q 272 1084 289 1082 q 238 1089 254 1086 q 232 1088 233 1089 l 215 1069 q 214 1063 211 1065 q 265 931 247 999 q 292 792 283 863 l 278 792 q 163 812 219 792 q 63 869 107 832 q 56 869 58 872 l 35 854 q 32 849 31 851 q 47 769 47 807 q 44 735 47 753 q 33 701 42 718 q 36 694 32 699 l 54 682 q 60 682 57 679 q 117 716 89 703 q 172 738 144 729 q 230 751 200 746 q 294 758 260 756 q 207 574 282 656 q 207 567 203 569 q 247 465 232 526 q 269 331 261 403 q 279 185 276 260 q 282 42 282 110 q 281 -35 282 1 q 281 -101 281 -71 l 281 -168 q 285 -174 281 -169 l 308 -182 l 313 -182 l 332 -175 q 335 -169 335 -172 l 349 221 q 349 241 349 232 q 350 261 350 250 q 360 417 351 342 q 410 568 369 492 q 408 575 413 571 q 351 658 368 617 q 326 757 335 700 q 446 733 386 754 q 554 675 506 713 q 561 675 558 672 l 579 693 q 581 699 581 694 q 572 767 572 732 q 585 849 572 807 z "},"":{"ha":360,"x_min":31,"x_max":329,"o":"m 329 1067 q 255 1123 293 1096 q 176 1175 217 1150 q 100 1106 138 1142 q 31 1029 63 1069 q 105 1074 67 1053 q 188 1096 143 1096 q 249 1075 224 1096 q 289 1022 274 1054 q 310 1044 300 1033 q 329 1067 321 1054 z "},"":{"ha":1328,"x_min":31,"x_max":1297,"o":"m 1297 293 q 1285 366 1297 331 q 1252 430 1274 401 q 1199 475 1231 458 q 1126 492 1167 492 q 1048 476 1083 492 q 988 433 1013 460 q 949 369 963 406 q 935 292 935 333 q 947 216 935 253 q 981 151 958 179 q 1038 106 1004 124 q 1113 89 1071 89 q 1189 106 1154 89 q 1247 151 1224 124 q 1284 216 1271 179 q 1297 293 1297 253 m 881 293 q 869 366 881 331 q 835 430 857 401 q 782 475 814 458 q 710 492 750 492 q 631 476 667 492 q 571 433 596 460 q 532 369 546 406 q 518 292 518 333 q 530 216 518 253 q 565 151 542 179 q 621 106 588 124 q 696 89 654 89 q 772 106 738 89 q 831 151 807 124 q 867 216 854 179 q 881 293 881 253 m 664 929 q 598 924 642 926 q 501 917 554 921 q 390 910 447 914 q 282 901 332 906 q 195 892 232 897 q 146 882 158 888 q 61 817 92 858 q 31 715 31 775 q 46 638 31 678 q 88 567 61 599 q 149 515 114 535 q 225 494 185 494 q 301 516 267 494 q 360 571 336 538 q 399 644 385 604 q 413 722 413 685 q 394 803 413 765 q 340 865 376 840 q 472 878 407 875 q 603 885 536 882 q 425 483 515 682 q 243 83 335 285 l 261 82 q 292 83 276 81 q 318 99 307 86 q 349 163 324 106 q 410 305 375 221 q 486 489 446 389 q 563 678 526 589 q 627 837 600 768 q 664 929 654 906 m 1231 310 q 1210 202 1231 257 q 1140 118 1189 147 q 1078 143 1106 124 q 1033 190 1051 163 q 1004 251 1014 218 q 994 318 994 285 q 1002 372 994 346 q 1025 419 1010 399 q 1063 451 1040 439 q 1117 464 1086 464 q 1169 449 1147 464 q 1204 413 1190 435 q 1224 363 1218 390 q 1231 310 1231 336 m 814 310 q 793 202 814 257 q 724 118 772 147 q 662 143 689 124 q 616 190 635 163 q 588 251 597 218 q 578 318 578 285 q 585 372 578 346 q 608 419 593 399 q 647 451 624 439 q 700 464 669 464 q 752 449 731 464 q 788 413 774 435 q 808 363 801 390 q 814 310 814 336 m 340 717 q 319 613 340 664 q 251 535 299 563 q 185 552 214 535 q 138 597 157 569 q 110 658 119 624 q 101 725 101 692 q 108 780 101 753 q 131 828 115 807 q 168 862 146 849 q 222 875 190 875 q 276 860 254 875 q 313 823 299 846 q 334 772 328 800 q 340 717 340 743 z "},"":{"ha":501,"x_min":0,"x_max":0,"o":""},"":{"ha":311,"x_min":31,"x_max":281,"o":"m 281 367 q 260 388 275 372 q 225 423 244 403 q 184 465 206 443 q 145 507 163 488 q 117 540 128 526 q 106 558 106 554 q 129 595 106 565 q 183 660 153 625 q 240 730 213 696 q 275 781 267 764 q 150 667 211 725 q 31 547 89 610 q 129 428 79 486 q 238 318 179 371 q 258 344 247 332 q 281 367 268 356 z "},"":{"ha":174,"x_min":31,"x_max":143,"o":"m 143 1028 q 104 984 124 1010 q 68 930 85 958 q 41 872 51 901 q 31 815 31 842 q 57 760 31 775 q 118 746 83 746 l 136 746 q 104 851 104 794 q 118 940 104 897 q 143 1028 132 983 z "},"":{"ha":172,"x_min":31,"x_max":142,"o":"m 142 958 q 120 1010 142 992 q 67 1028 99 1029 l 38 1026 q 68 921 68 976 q 55 833 68 876 q 31 746 42 789 q 68 790 49 764 q 104 844 88 815 q 131 902 121 872 q 142 958 142 932 z "},"":{"ha":321,"x_min":31,"x_max":290,"o":"m 290 1028 q 253 984 272 1010 q 217 930 233 958 q 190 872 200 901 q 179 815 179 842 q 205 760 179 775 q 265 746 231 746 l 283 746 q 253 851 253 796 q 266 940 253 897 q 290 1028 279 983 m 142 1028 q 103 984 122 1010 q 67 930 83 958 q 41 872 51 901 q 31 815 31 842 q 56 760 31 775 q 117 746 82 746 l 135 746 q 104 851 104 793 q 117 940 104 897 q 142 1028 131 983 z "},"":{"ha":321,"x_min":31,"x_max":290,"o":"m 290 957 q 269 1010 290 990 q 215 1028 249 1031 l 186 1026 q 218 921 218 978 q 204 832 218 875 q 179 746 190 789 q 217 788 197 763 q 253 843 236 814 q 280 902 269 872 q 290 957 290 932 m 142 958 q 120 1010 142 992 q 67 1028 99 1029 l 38 1026 q 68 921 68 976 q 55 833 68 876 q 31 746 42 789 q 68 790 49 764 q 104 844 88 815 q 131 902 121 872 q 142 958 142 932 z "},"":{"ha":265,"x_min":31,"x_max":235,"o":"m 235 547 q 233 569 235 558 q 228 590 232 581 l 221 593 q 124 562 171 581 q 35 522 78 543 q 32 515 31 519 q 38 511 33 511 q 93 492 71 507 q 131 455 115 478 q 156 404 146 432 q 172 347 165 376 q 176 343 174 343 q 183 346 181 343 q 202 391 193 365 q 219 444 211 417 q 231 498 226 471 q 235 547 235 525 z "},"":{"ha":631,"x_min":31,"x_max":600,"o":"m 600 529 l 600 579 l 31 579 l 31 529 l 600 529 z "},"":{"ha":1201,"x_min":31,"x_max":1171,"o":"m 1171 529 l 1171 579 l 31 579 l 31 529 l 1171 529 z "},"":{"ha":414,"x_min":31,"x_max":383,"o":"m 383 1136 q 347 1104 368 1117 q 300 1092 325 1092 q 255 1100 276 1092 q 212 1117 233 1108 q 169 1135 190 1126 q 125 1143 147 1143 q 90 1133 104 1143 q 63 1109 75 1124 q 44 1077 51 1094 q 31 1043 36 1060 q 67 1080 46 1064 q 117 1096 89 1096 q 163 1088 140 1096 q 206 1069 185 1079 q 249 1050 228 1058 q 293 1042 269 1042 q 327 1051 313 1042 q 352 1074 342 1060 q 370 1104 363 1088 q 383 1136 378 1121 z "},"":{"ha":915,"x_min":31,"x_max":885,"o":"m 882 564 q 844 608 858 578 q 820 676 829 638 q 806 756 811 714 q 797 839 801 799 q 791 905 794 875 q 782 957 788 935 q 778 961 781 961 q 772 958 775 961 q 716 868 740 914 q 672 778 692 822 q 642 712 657 744 q 615 657 628 679 q 590 706 600 683 q 567 757 579 729 q 517 858 543 807 q 454 958 492 908 q 449 961 451 961 q 444 957 446 961 q 436 913 440 940 q 428 851 432 886 q 416 766 422 811 q 401 681 410 721 q 379 610 392 640 q 349 569 367 581 q 346 564 346 567 q 350 560 346 561 q 414 555 382 556 q 479 554 446 554 q 484 558 483 554 q 482 564 485 561 q 453 603 461 579 q 446 653 446 628 q 449 698 446 675 q 457 744 453 721 q 462 775 460 760 q 465 806 464 790 q 489 762 481 781 q 510 715 497 743 q 549 636 528 676 q 600 556 569 596 q 608 556 606 550 q 617 571 613 563 q 625 586 621 579 q 681 697 653 643 q 738 807 710 750 l 739 806 q 749 684 742 743 q 763 563 756 625 q 767 558 763 558 q 806 555 786 556 q 847 554 826 554 l 881 554 q 884 558 883 554 q 882 564 885 561 m 376 944 l 371 950 q 329 949 351 950 q 283 946 307 947 q 228 943 257 944 q 172 942 200 942 q 111 944 140 942 q 58 956 82 947 q 51 951 54 957 q 40 912 44 932 q 32 871 35 892 q 34 865 31 867 q 40 865 38 863 q 101 896 67 889 q 169 906 136 903 l 172 906 l 172 593 q 156 575 172 578 q 128 572 140 572 q 124 567 124 572 q 128 561 124 561 q 209 556 168 557 q 290 554 250 554 q 296 558 294 554 q 293 565 297 563 q 288 567 290 567 q 281 569 285 567 q 257 579 269 574 q 244 592 244 585 l 244 904 q 263 903 253 903 q 279 906 272 904 q 292 906 286 906 q 304 907 297 907 q 358 860 353 907 q 363 855 358 856 q 369 858 368 854 q 375 900 374 879 q 376 944 376 921 z "},"":{"ha":313,"x_min":31,"x_max":282,"o":"m 282 551 q 183 671 236 614 q 75 781 131 728 q 55 755 65 767 q 31 732 44 743 q 67 695 39 724 q 126 635 96 667 q 181 575 157 603 q 206 542 206 547 q 183 503 206 533 q 130 438 160 474 q 73 367 100 401 q 38 318 46 333 q 164 430 106 369 q 282 551 222 490 z "},"":{"ha":176,"x_min":31,"x_max":146,"o":"m 146 900 q 130 946 146 924 q 89 968 114 968 q 50 952 65 968 q 35 913 35 936 q 49 869 35 892 q 86 847 63 847 q 127 862 108 847 q 146 900 146 876 m 142 167 q 139 316 142 238 q 129 474 136 394 q 112 630 122 553 q 85 776 101 707 q 66 601 72 689 q 56 424 60 513 q 46 248 51 336 q 31 72 40 160 q 59 85 40 75 q 97 110 78 96 q 128 140 115 125 q 142 167 142 156 z "},"":{"ha":569,"x_min":31,"x_max":539,"o":"m 539 685 q 522 734 539 715 q 479 765 504 753 q 426 781 454 776 q 375 788 397 786 l 390 897 q 385 904 390 904 l 371 904 q 337 876 343 904 q 329 818 331 849 q 329 799 329 807 q 326 783 329 790 q 208 766 263 786 q 115 708 154 746 q 53 617 75 669 q 31 500 31 564 q 47 401 31 447 q 92 319 63 356 q 163 258 121 283 q 256 221 204 232 q 251 178 254 199 q 246 135 249 157 q 241 96 243 115 q 238 57 239 76 q 243 51 238 51 l 288 57 q 293 61 293 57 q 301 138 296 100 q 308 213 306 175 q 324 212 317 213 q 343 211 332 211 q 406 215 372 211 q 469 231 440 219 q 517 262 499 242 q 536 315 536 282 q 533 342 536 329 q 525 367 529 356 q 519 371 524 371 q 514 367 515 371 q 462 293 497 315 q 372 272 426 271 q 347 273 360 272 q 322 274 335 274 q 328 328 326 293 q 333 406 331 363 q 340 514 336 457 q 352 619 344 571 q 371 698 360 667 q 399 729 382 729 q 428 718 413 729 q 458 692 443 707 q 485 658 472 676 q 506 628 497 640 l 504 628 q 507 624 506 625 q 510 619 508 622 q 521 619 515 611 q 533 651 528 635 q 539 685 539 667 m 311 729 q 290 511 300 621 q 268 293 279 401 q 163 392 204 328 q 121 531 121 457 q 174 669 121 617 q 311 729 228 722 z "},"":{"ha":685,"x_min":26,"x_max":654,"o":"m 654 899 q 651 903 654 900 q 600 927 628 918 q 543 936 572 936 q 422 899 481 936 q 318 805 364 861 q 244 682 272 749 q 217 557 217 615 q 217 540 217 549 q 219 525 217 533 q 213 521 217 522 q 207 518 210 519 q 185 521 199 518 q 138 522 160 526 q 107 479 115 518 q 113 472 104 472 q 165 474 138 475 q 217 469 192 472 q 208 424 211 449 q 203 376 206 400 q 188 283 196 329 q 157 199 179 236 q 113 155 142 171 q 63 128 85 139 q 32 106 43 118 q 36 97 26 97 q 142 92 89 94 q 250 90 196 90 q 313 90 278 90 q 376 88 347 89 q 440 85 408 86 q 503 83 471 83 q 610 114 567 83 q 653 214 653 144 q 651 235 653 225 q 647 256 650 244 q 639 257 644 265 q 594 201 611 221 q 559 173 576 182 q 518 163 542 164 q 456 161 494 161 l 385 161 q 288 161 335 161 q 190 164 240 161 q 279 307 254 226 q 308 474 304 388 q 321 475 314 475 q 333 475 328 475 q 347 475 340 475 q 364 474 356 475 q 385 472 375 472 q 407 471 396 471 q 462 480 438 471 q 493 521 486 489 q 488 528 496 528 q 401 524 443 524 q 360 525 381 524 q 317 529 339 526 q 308 578 308 554 q 325 665 308 614 q 369 765 342 717 q 435 846 397 813 q 514 879 472 879 q 556 867 538 879 q 588 835 574 854 q 610 793 601 815 q 626 751 619 771 l 636 750 q 651 795 649 769 q 653 844 653 821 l 653 876 l 654 899 z "},"":{"ha":1150,"x_min":31,"x_max":1119,"o":"m 1119 199 q 1114 246 1119 225 q 1062 149 1089 190 q 1001 81 1035 108 q 921 41 967 54 q 811 28 875 28 q 655 56 731 28 q 515 133 579 85 q 404 249 451 182 q 332 390 357 315 l 1101 390 l 1101 440 l 318 440 q 309 499 311 469 q 306 557 307 528 l 1101 557 l 1101 607 l 307 607 q 347 778 311 701 q 441 908 382 854 q 580 990 500 961 q 753 1018 660 1018 q 871 1001 815 1018 q 970 952 926 985 q 1043 871 1014 919 q 1083 758 1072 822 q 1101 888 1093 824 q 1110 1017 1108 951 q 936 1040 1022 1024 q 761 1056 850 1056 q 385 949 529 1056 q 200 607 242 842 l 31 607 l 31 557 l 194 557 q 194 440 188 499 l 31 440 l 31 390 l 201 390 q 267 222 221 296 q 381 96 314 147 q 533 17 449 44 q 713 -10 618 -10 q 894 -1 804 -10 q 1074 24 983 8 q 1107 109 1094 64 q 1119 199 1119 154 z "},"":{"ha":807,"x_min":31,"x_max":776,"o":"m 776 907 l 697 907 q 634 906 665 907 q 571 903 603 906 q 590 846 590 876 q 568 775 590 819 q 517 681 546 731 q 460 585 489 632 q 419 508 432 539 q 375 590 404 543 q 315 688 346 638 q 263 784 285 738 q 240 864 240 831 q 253 903 240 886 q 143 907 199 907 q 87 906 115 907 q 31 901 58 904 q 98 865 65 892 q 160 799 131 838 q 217 714 190 760 q 269 622 244 668 q 316 535 294 576 q 356 465 338 494 q 339 463 347 464 q 322 463 331 463 q 283 465 304 463 q 240 465 261 467 q 202 456 219 464 q 175 426 185 447 l 365 426 l 365 151 q 355 124 365 135 q 330 108 344 114 q 299 99 315 101 q 269 99 282 97 l 253 100 q 306 90 279 92 q 361 89 333 89 q 458 90 410 89 q 556 89 507 90 q 524 98 543 94 q 487 106 506 101 q 455 121 468 111 q 442 150 442 131 l 442 426 l 626 426 l 638 467 l 447 467 q 484 536 463 494 q 531 626 506 578 q 585 722 557 674 q 645 809 614 769 q 710 876 676 849 q 776 907 743 903 z "},"":{"ha":560,"x_min":31,"x_max":529,"o":"m 529 490 q 509 607 529 563 q 458 678 489 651 q 387 717 426 704 q 308 740 347 731 q 244 759 275 749 q 188 788 213 769 q 149 834 164 806 q 133 907 133 863 q 167 1019 133 974 q 272 1064 201 1064 q 349 1055 311 1064 q 424 1033 388 1046 q 431 1036 428 1031 l 456 1106 q 451 1113 457 1110 q 328 1136 392 1136 q 211 1113 261 1136 q 128 1051 161 1090 q 78 957 94 1011 q 61 842 61 903 q 65 790 61 811 q 76 750 68 768 q 97 715 83 732 q 129 678 110 699 q 56 564 81 629 q 31 428 31 499 q 50 314 31 357 q 101 246 69 271 q 171 208 132 221 q 250 185 210 194 q 315 167 283 176 q 372 139 347 157 q 412 92 397 121 q 426 17 426 64 q 281 -135 426 -135 q 210 -127 244 -135 q 140 -107 175 -119 q 133 -111 136 -106 l 108 -179 q 113 -185 107 -183 q 133 -189 122 -187 q 153 -193 144 -190 q 195 -203 174 -199 q 240 -207 217 -207 q 351 -185 303 -207 q 433 -124 400 -162 q 482 -35 465 -86 q 499 75 499 17 q 483 169 499 124 q 431 247 467 215 q 504 358 479 296 q 529 490 529 421 m 458 432 q 457 429 457 432 q 440 343 457 385 q 392 269 422 301 q 350 281 369 276 q 308 292 331 286 q 231 312 268 301 q 167 343 194 322 q 122 398 139 364 q 106 488 106 432 q 121 576 106 532 q 165 657 136 621 q 201 646 185 650 q 236 638 218 642 q 317 614 278 626 q 388 580 357 601 q 439 523 419 558 q 458 432 458 488 z "},"":{"ha":388,"x_min":31,"x_max":357,"o":"m 357 1085 q 344 1122 357 1104 q 311 1139 332 1139 q 276 1125 292 1139 q 261 1090 261 1111 q 276 1053 261 1071 q 311 1035 290 1035 q 344 1050 331 1035 q 357 1085 357 1065 m 125 1085 q 113 1121 125 1103 q 81 1139 100 1139 q 46 1125 61 1139 q 31 1092 31 1111 q 45 1053 31 1072 q 81 1035 60 1035 q 113 1050 100 1035 q 125 1085 125 1065 z "},"":{"ha":949,"x_min":31,"x_max":918,"o":"m 918 486 q 888 656 918 569 q 801 813 857 742 q 670 928 746 883 q 504 974 594 974 q 335 942 419 974 q 183 853 250 910 q 73 721 115 797 q 31 554 31 644 q 62 387 31 474 q 148 228 93 300 q 278 108 203 156 q 442 61 354 61 q 613 93 528 61 q 766 182 699 125 q 876 317 833 239 q 918 486 918 394 m 854 574 q 828 427 854 497 q 756 299 801 357 q 648 196 710 240 q 515 128 586 151 q 357 173 432 136 q 226 267 282 210 q 136 399 169 324 q 103 561 103 475 q 135 713 103 647 q 223 822 168 778 q 351 890 278 867 q 504 913 424 913 q 644 889 581 913 q 755 822 708 865 q 828 715 801 778 q 854 574 854 651 m 665 756 l 663 760 q 603 785 635 779 q 539 792 571 792 q 426 775 485 792 q 319 726 368 758 q 239 645 271 693 q 207 535 207 597 q 235 426 207 475 q 307 341 263 376 q 406 286 351 306 q 517 267 461 267 q 567 272 542 267 q 611 290 592 278 q 643 323 631 303 q 656 372 656 343 q 656 388 656 381 q 654 403 656 396 q 649 407 653 407 q 643 403 644 407 q 595 338 628 363 q 518 313 563 313 q 435 335 475 313 q 363 392 394 357 q 311 471 331 428 q 292 556 292 514 q 311 631 292 597 q 360 690 331 665 q 428 728 390 714 q 504 742 467 742 q 591 713 554 742 q 638 635 628 685 q 642 631 639 631 q 649 633 646 631 q 662 679 660 656 q 664 726 664 703 q 665 741 664 733 q 665 756 665 749 z "},"":{"ha":540,"x_min":31,"x_max":510,"o":"m 510 563 q 436 630 471 578 q 370 744 401 682 q 311 869 339 807 q 260 967 283 931 q 231 906 246 942 q 199 828 215 869 q 163 744 182 786 q 124 665 144 701 q 80 601 103 628 q 31 564 57 574 q 65 563 49 563 q 100 563 82 563 q 136 563 118 563 q 172 564 154 563 q 153 595 161 579 q 146 631 146 611 q 156 661 146 649 q 179 681 165 674 q 210 692 193 689 q 242 696 226 696 q 287 690 264 696 q 329 672 310 685 q 361 641 349 660 q 374 597 374 622 q 369 568 374 582 q 424 563 397 564 q 478 563 450 563 l 510 563 m 308 725 l 196 725 q 222 792 208 758 q 250 858 236 825 q 283 793 268 826 q 308 725 297 760 z "},"":{"ha":533,"x_min":31,"x_max":503,"o":"m 503 367 q 413 457 458 413 q 324 547 368 501 q 361 596 333 563 q 418 665 389 629 q 469 733 447 701 q 492 776 492 764 l 490 781 q 366 665 428 722 q 246 547 304 608 q 346 428 294 486 q 454 318 397 371 q 503 367 478 343 m 286 372 q 194 460 239 415 q 107 553 149 504 q 201 662 153 608 q 281 781 249 715 q 153 667 215 724 q 31 547 90 610 q 131 427 76 483 q 243 318 186 371 l 286 372 z "},"":{"ha":1300,"x_min":31,"x_max":1269,"o":"m 1256 414 q 1247 451 1253 429 q 1226 482 1242 472 q 1183 443 1211 465 q 1132 421 1156 421 l 1124 421 q 1140 480 1131 451 q 1150 540 1150 508 q 1149 551 1150 546 q 1146 563 1147 557 q 1108 553 1126 560 q 1075 533 1090 546 q 1094 485 1083 510 q 1106 433 1106 461 q 1103 418 1106 426 q 1075 435 1090 424 q 1043 456 1060 446 q 1010 474 1026 467 q 982 482 994 482 q 976 481 979 482 q 971 481 974 481 q 974 445 971 463 q 976 410 976 428 l 999 408 q 1022 410 1008 408 q 1049 411 1035 411 q 1074 409 1063 411 q 1093 399 1086 407 q 1067 375 1085 390 q 1031 343 1049 360 q 999 310 1013 326 q 985 283 985 294 q 1020 276 1003 279 q 1056 274 1038 274 l 1061 274 q 1078 334 1065 304 q 1114 388 1090 364 q 1126 358 1119 379 q 1142 317 1133 338 q 1160 280 1150 296 q 1182 264 1171 264 q 1194 270 1189 264 q 1205 285 1200 276 q 1213 302 1210 293 q 1218 317 1217 311 q 1200 340 1214 331 q 1172 359 1186 350 q 1145 379 1157 368 q 1133 406 1133 390 q 1195 408 1165 406 q 1256 414 1225 411 m 1269 -11 q 1169 17 1222 -11 q 1062 90 1117 44 q 951 190 1007 135 q 845 301 896 246 q 751 406 794 357 q 674 488 707 456 q 742 554 710 519 q 807 625 775 589 q 819 518 814 572 q 824 410 824 464 q 818 361 824 383 q 924 356 871 358 q 1031 354 978 354 q 1000 362 1014 360 q 972 367 986 364 q 947 376 958 369 q 922 399 935 383 q 902 453 911 413 q 887 541 893 494 q 876 631 881 588 q 869 696 871 675 q 926 753 894 722 q 994 813 958 785 q 1069 860 1031 840 q 1144 885 1107 881 q 1026 887 1085 888 q 907 890 967 886 q 917 856 917 874 q 899 801 917 828 q 865 756 881 775 q 849 895 858 826 q 829 1033 839 964 q 760 928 793 983 q 698 816 728 874 q 640 700 668 758 q 583 586 613 642 l 581 792 q 606 854 581 828 q 667 883 631 881 q 522 889 594 888 q 378 890 450 890 q 401 877 385 878 q 435 873 418 876 q 465 855 451 869 q 478 801 478 840 l 478 533 q 444 597 467 554 q 393 690 421 639 q 334 798 365 742 q 274 902 303 854 q 222 986 246 950 q 186 1033 199 1022 q 177 958 183 1013 q 162 834 171 904 q 143 687 153 764 q 124 544 133 610 q 108 433 115 478 q 96 382 100 388 q 67 363 82 364 q 31 358 51 361 q 136 354 83 356 q 242 353 189 353 q 208 364 222 361 q 185 372 194 367 q 172 388 176 378 q 168 421 168 397 q 185 636 168 531 q 214 850 201 742 q 277 733 247 793 q 338 615 307 674 q 403 499 369 557 q 478 389 438 442 l 478 108 q 476 57 478 78 q 467 23 475 36 q 441 1 458 10 q 390 -12 424 -7 q 540 -17 465 -17 q 689 -18 614 -18 q 640 -3 661 -4 q 606 3 619 -3 q 587 32 593 10 q 581 113 581 54 l 581 447 q 660 365 617 414 q 751 262 703 317 q 851 153 800 207 q 956 56 903 99 q 1063 -15 1010 13 q 1167 -42 1115 -42 q 1269 -11 1221 -42 m 797 685 q 688 578 743 629 q 583 463 632 526 l 583 506 q 678 681 631 594 q 778 854 725 768 q 787 769 782 811 q 797 685 792 726 z "},"":{"ha":961,"x_min":31,"x_max":931,"o":"m 931 485 q 899 651 931 564 q 810 810 867 738 q 679 931 754 883 q 518 978 604 978 q 348 939 435 978 q 190 835 261 900 q 75 689 119 771 q 31 519 31 607 q 76 338 31 419 q 193 197 121 256 q 356 107 265 139 q 539 75 447 75 q 681 113 611 75 q 807 210 751 150 q 897 342 863 269 q 931 485 931 414 m 561 615 q 541 544 561 576 q 478 511 521 511 q 424 524 450 511 l 424 738 q 457 742 440 742 q 501 731 482 742 q 534 701 521 719 q 554 660 547 683 q 561 615 561 638 m 864 571 q 837 426 864 494 q 764 300 810 358 q 714 359 742 332 q 658 411 686 386 q 610 456 635 433 q 568 499 585 479 q 619 571 597 532 q 640 656 640 610 q 628 708 640 686 q 598 744 617 731 q 553 765 579 758 q 501 772 528 772 l 297 772 q 292 769 293 772 q 294 763 292 765 q 304 756 297 760 q 318 750 311 753 q 340 741 329 747 q 351 724 351 735 l 351 328 q 342 307 351 313 q 319 297 332 301 q 307 293 313 294 q 294 285 301 292 q 292 278 292 282 q 297 275 293 275 l 479 275 q 483 283 489 275 q 467 297 476 292 q 450 304 458 301 q 429 311 435 307 q 424 381 425 347 q 422 450 422 415 l 422 479 q 438 485 429 482 q 453 488 446 488 q 519 454 489 488 q 579 381 550 421 q 612 337 596 358 q 645 299 628 315 q 682 272 663 282 q 724 263 701 263 l 731 263 q 636 184 688 218 q 526 128 585 150 q 367 174 442 136 q 237 269 293 211 q 148 402 181 326 q 115 564 115 478 q 147 714 115 649 q 233 824 179 779 q 359 890 288 868 q 511 913 431 913 q 653 889 588 913 q 765 821 718 865 q 838 713 811 776 q 864 571 864 650 z "},"":{"ha":357,"x_min":31,"x_max":326,"o":"m 326 1115 l 40 1115 q 31 1075 31 1093 l 311 1075 q 322 1094 317 1085 q 326 1115 326 1104 z "},"":{"ha":436,"x_min":31,"x_max":406,"o":"m 406 831 q 392 907 406 871 q 353 970 378 943 q 293 1013 328 997 q 217 1029 258 1029 q 145 1014 179 1029 q 86 972 111 999 q 46 912 61 946 q 31 840 31 878 q 46 766 31 800 q 87 706 61 732 q 147 665 113 679 q 222 650 182 650 q 293 664 260 650 q 351 703 326 678 q 391 760 376 728 q 406 831 406 793 m 354 840 q 353 838 353 840 q 342 785 353 810 q 312 743 331 761 q 269 715 293 725 q 217 704 244 704 q 168 714 192 704 q 126 740 144 724 q 95 780 107 757 q 83 828 83 803 q 120 931 83 889 q 219 974 157 974 q 270 963 246 974 q 313 934 294 953 q 342 891 331 915 q 354 840 353 867 z "},"":{"ha":501,"x_min":0,"x_max":0,"o":""},"":{"ha":501,"x_min":0,"x_max":0,"o":""},"":{"ha":294,"x_min":31,"x_max":264,"o":"m 264 1090 q 260 1111 263 1100 q 252 1133 257 1122 q 239 1150 247 1143 q 218 1157 231 1157 q 176 1142 201 1157 q 125 1108 151 1128 q 73 1068 99 1088 q 31 1040 47 1049 q 129 1076 79 1057 q 232 1092 179 1094 l 264 1090 z "},"":{"ha":707,"x_min":31,"x_max":676,"o":"m 676 1007 l 676 1043 q 671 1049 676 1049 l 401 1049 q 258 1031 325 1049 q 140 976 190 1014 q 60 878 89 939 q 31 732 31 818 q 54 610 31 667 q 119 513 78 554 q 215 445 160 471 q 335 418 271 419 l 335 -200 l 244 -200 q 239 -206 239 -200 l 239 -244 q 244 -250 239 -250 l 396 -250 l 396 1003 l 522 1003 q 522 694 522 853 q 522 376 522 536 q 521 58 521 217 q 521 -250 521 -100 l 669 -250 q 675 -244 675 -250 l 675 -206 q 669 -200 675 -200 q 626 -201 647 -200 q 581 -201 604 -201 l 581 1001 l 671 1001 q 676 1007 676 1001 z "},"":{"ha":179,"x_min":31,"x_max":149,"o":"m 149 529 q 131 576 149 554 q 86 599 113 599 q 46 581 61 599 q 31 539 31 563 q 44 493 31 517 q 82 469 57 469 q 127 487 106 469 q 149 529 149 504 z "},"":{"ha":244,"x_min":31,"x_max":214,"o":"m 214 -50 q 190 0 214 -15 q 133 15 165 15 q 118 15 126 15 q 103 13 110 14 l 181 90 l 168 92 q 133 81 149 92 q 101 55 117 69 q 72 25 86 40 q 42 1 57 10 q 109 -23 79 0 q 139 -86 139 -46 q 109 -151 139 -128 q 40 -174 79 -174 l 31 -172 q 78 -182 51 -182 q 127 -171 103 -182 q 171 -142 151 -160 q 202 -99 190 -124 q 214 -50 214 -75 z "},"":{"ha":501,"x_min":0,"x_max":0,"o":""},"":{"ha":503,"x_min":31,"x_max":472,"o":"m 472 747 q 456 832 472 792 q 413 903 440 872 q 346 953 385 935 q 261 972 307 972 q 173 956 215 972 q 99 913 131 940 q 49 844 68 885 q 31 757 31 804 q 43 680 31 718 q 80 611 56 642 q 138 561 104 581 q 214 542 172 542 q 254 548 235 542 q 293 560 274 554 q 366 584 333 571 q 422 617 399 597 q 459 669 446 638 q 472 747 472 700 m 396 761 q 388 705 396 736 q 364 646 379 674 q 325 599 349 618 q 272 581 301 581 q 200 599 232 581 q 146 645 168 617 q 112 710 124 674 q 100 783 100 746 q 139 897 100 851 q 249 943 178 943 q 313 926 285 943 q 359 884 340 910 q 387 826 378 858 q 396 761 396 793 z "},"":{"ha":532,"x_min":31,"x_max":501,"o":"m 501 551 q 289 781 406 674 q 267 753 278 765 q 246 726 257 740 q 339 639 294 683 q 426 547 383 594 q 385 499 413 531 q 330 433 358 468 q 279 367 301 399 q 253 318 257 335 q 381 432 318 375 q 501 551 443 489 m 285 551 q 185 669 236 613 q 79 781 135 726 q 55 756 67 769 q 31 732 43 743 q 119 642 75 686 q 208 551 164 597 q 170 502 197 535 q 115 434 143 469 q 64 367 86 399 q 40 322 42 336 l 43 318 q 167 432 106 375 q 285 551 228 489 z "},"":{"ha":489,"x_min":31,"x_max":458,"o":"m 326 900 q 310 946 326 924 q 269 968 294 968 q 231 952 246 968 q 215 913 215 936 q 229 869 215 892 q 267 847 243 847 q 308 862 289 847 q 326 900 326 876 m 458 204 q 451 244 458 225 q 432 282 443 264 q 419 222 433 253 q 383 164 406 190 q 331 121 360 138 q 271 104 301 104 q 218 120 243 104 q 174 161 193 136 q 142 215 154 186 q 131 269 131 244 q 147 344 131 304 q 186 423 163 383 q 238 499 210 463 q 290 567 267 536 q 330 619 314 597 q 346 650 346 640 q 337 681 346 664 q 314 713 328 697 q 285 742 300 729 q 258 760 271 756 q 278 700 278 732 q 260 627 278 664 q 214 552 242 590 q 154 475 186 514 q 94 397 122 436 q 49 317 67 357 q 31 239 31 278 q 51 170 31 201 q 105 115 72 139 q 175 78 138 92 q 246 65 213 65 q 313 73 275 65 q 382 97 350 81 q 436 140 414 114 q 458 204 458 167 z "},"":{"ha":1094,"x_min":31,"x_max":1064,"o":"m 713 1078 q 697 1119 713 1101 q 657 1138 682 1138 q 622 1121 636 1138 q 608 1085 608 1104 q 624 1043 608 1063 q 663 1024 639 1024 q 699 1040 685 1024 q 713 1078 713 1056 m 428 1078 q 414 1117 428 1097 q 378 1138 400 1138 q 340 1122 357 1138 q 324 1085 324 1107 q 340 1043 324 1063 q 378 1024 356 1024 q 414 1040 400 1024 q 428 1078 428 1056 m 1064 13 q 983 46 1025 24 q 921 101 940 68 q 831 284 878 179 q 738 503 783 389 q 649 733 692 618 q 569 947 606 849 q 550 999 560 975 q 532 1047 540 1024 q 526 1051 531 1051 q 521 1047 522 1051 q 449 855 485 951 q 381 661 414 758 q 285 390 333 526 q 182 122 236 253 q 124 47 163 75 q 35 11 86 19 q 31 5 31 10 q 36 0 32 0 q 66 2 51 1 q 96 4 81 3 q 144 8 119 7 q 194 10 169 10 q 242 8 218 10 q 289 4 265 7 q 313 3 300 3 q 336 1 325 3 l 336 13 q 312 17 325 14 q 288 24 299 19 q 269 38 276 29 q 261 61 261 47 q 274 129 261 82 q 305 228 288 176 q 340 329 322 281 q 368 401 358 378 l 663 401 q 731 224 696 313 q 799 47 765 136 l 724 13 q 721 5 719 10 q 726 1 722 0 q 743 3 733 3 q 760 4 753 3 q 829 9 794 7 q 899 11 864 11 q 981 8 940 11 q 1063 1 1022 6 l 1064 13 m 639 461 l 386 461 q 440 622 415 543 q 492 785 464 701 q 503 822 497 803 q 517 860 510 840 l 639 461 z "},"":{"ha":288,"x_min":31,"x_max":257,"o":"m 257 1111 q 226 1168 257 1150 q 163 1186 196 1186 q 115 1179 139 1186 q 73 1158 92 1172 q 42 1124 54 1144 q 31 1076 31 1103 q 39 1048 31 1060 q 60 1028 47 1036 q 88 1017 72 1021 q 115 1014 103 1014 q 149 1022 132 1014 q 186 1030 167 1024 q 222 1047 206 1036 q 247 1074 238 1058 q 257 1111 257 1090 m 194 1099 q 179 1063 194 1083 q 149 1043 164 1043 q 104 1059 125 1043 q 83 1100 83 1075 q 100 1134 83 1121 q 136 1147 117 1147 q 176 1135 157 1147 q 194 1099 194 1122 z "},"":{"ha":253,"x_min":31,"x_max":222,"o":"m 222 -44 q 197 10 222 -6 q 138 26 171 26 l 124 26 l 174 75 q 175 81 176 78 q 171 85 174 85 q 160 86 165 86 q 149 88 156 86 l 151 93 q 150 99 154 96 q 143 100 146 103 q 96 58 118 75 q 69 35 82 47 q 43 10 56 24 q 42 3 40 7 q 47 0 43 0 q 110 -22 83 -1 q 138 -79 138 -42 q 110 -140 138 -118 q 47 -161 83 -161 l 38 -160 q 32 -164 33 -160 q 35 -171 31 -168 q 83 -181 56 -181 q 135 -169 110 -181 q 179 -138 160 -157 q 210 -94 199 -119 q 222 -44 222 -69 z "},"":{"ha":303,"x_min":29,"x_max":272,"o":"m 272 1085 q 268 1107 271 1094 q 259 1130 265 1119 q 244 1147 253 1140 q 221 1154 235 1154 q 164 1131 200 1154 q 92 1079 128 1107 q 63 1058 76 1068 q 33 1038 50 1047 q 31 1030 29 1035 q 38 1028 33 1025 l 71 1039 q 152 1067 111 1053 q 235 1079 193 1082 l 267 1078 q 272 1085 272 1078 z "},"":{"ha":501,"x_min":0,"x_max":0,"o":""},"":{"ha":422,"x_min":31,"x_max":392,"o":"m 392 1128 l 382 1132 q 348 1102 368 1114 q 304 1090 328 1090 q 261 1099 282 1090 q 218 1117 240 1107 q 176 1134 197 1126 q 131 1142 154 1142 q 92 1132 108 1142 q 64 1107 75 1122 q 45 1073 53 1092 q 32 1038 38 1054 q 35 1033 31 1035 q 42 1033 39 1031 q 76 1069 56 1054 q 124 1083 97 1083 q 166 1075 144 1083 q 210 1056 188 1067 q 252 1037 231 1044 q 297 1029 274 1029 q 333 1039 318 1029 q 360 1063 349 1049 q 378 1095 371 1078 q 392 1128 386 1113 z "},"":{"ha":1136,"x_min":31,"x_max":1106,"o":"m 1106 485 q 1062 710 1106 606 q 941 893 1018 815 q 760 1015 864 971 q 535 1060 656 1060 q 522 1060 529 1060 q 511 1058 517 1060 q 286 987 378 1031 q 138 874 194 943 q 56 707 81 806 q 31 472 31 608 q 54 351 31 411 q 119 238 78 292 q 213 136 160 183 q 326 54 267 89 q 449 0 386 19 q 569 -19 511 -19 q 774 18 676 -19 q 944 123 871 56 q 1062 283 1018 190 q 1106 485 1106 375 m 985 488 q 959 316 985 397 q 883 173 933 235 q 758 74 832 111 q 588 38 683 38 q 405 84 485 38 q 270 204 325 131 q 187 371 215 278 q 158 557 158 464 q 185 730 158 649 q 263 872 211 811 q 389 967 314 932 q 561 1003 464 1003 q 743 957 664 1003 q 876 838 822 911 q 957 672 929 764 q 985 488 985 581 m 731 876 q 717 917 731 897 q 679 936 703 936 q 642 920 657 936 q 626 883 626 904 q 642 842 626 863 q 679 822 657 822 q 716 838 701 822 q 731 876 731 854 m 507 876 q 494 917 507 897 q 457 936 481 936 q 418 921 435 936 q 401 883 401 906 q 417 842 401 863 q 456 822 433 822 q 492 838 478 822 q 507 876 507 854 z "},"":{"ha":1082,"x_min":31,"x_max":1051,"o":"m 726 1072 q 711 1116 726 1094 q 672 1138 696 1138 q 638 1123 653 1138 q 622 1089 622 1108 q 645 1044 622 1063 q 694 1026 668 1026 q 717 1044 708 1032 q 726 1072 726 1056 m 503 1072 q 488 1116 503 1094 q 449 1138 472 1138 q 415 1123 431 1138 q 399 1089 399 1108 q 422 1044 399 1063 q 471 1026 444 1026 q 493 1044 483 1032 q 503 1072 503 1056 m 1051 1018 l 1050 1029 l 1033 1029 q 972 1030 1001 1029 q 913 1031 943 1031 l 847 1031 q 799 1031 824 1031 q 750 1033 775 1031 q 745 1028 746 1033 q 749 1022 744 1024 q 831 988 803 1014 q 860 904 860 961 q 860 761 860 832 q 861 619 860 690 q 863 476 863 549 q 863 335 863 406 q 840 217 863 269 q 777 126 817 164 q 683 67 738 88 q 565 46 629 46 q 449 66 503 46 q 355 124 394 86 q 293 213 315 161 q 271 329 271 265 q 271 474 271 401 q 272 618 271 546 q 274 761 274 690 q 274 906 274 832 q 283 940 274 924 q 306 970 292 956 q 337 996 321 985 q 368 1015 353 1007 q 371 1022 372 1018 q 365 1026 369 1026 q 310 1025 338 1025 q 256 1025 283 1025 q 147 1026 201 1025 q 36 1031 92 1028 q 31 1026 32 1031 q 35 1019 31 1021 q 116 984 86 1007 q 146 904 146 961 q 145 866 146 889 q 144 815 144 843 q 144 724 144 775 q 143 619 143 672 q 144 506 143 563 q 146 401 144 449 q 151 318 147 353 q 158 269 154 283 q 220 153 179 206 q 315 62 261 100 q 433 2 369 24 q 564 -19 497 -19 q 726 14 653 -19 q 850 105 799 47 q 929 239 901 163 q 957 401 957 315 l 957 906 q 983 978 957 946 q 1051 1018 1010 1011 z "},"":{"ha":501,"x_min":0,"x_max":0,"o":""},"":{"ha":501,"x_min":0,"x_max":0,"o":""},"":{"ha":844,"x_min":31,"x_max":814,"o":"m 814 304 q 800 374 814 342 q 763 434 786 406 q 712 488 740 463 q 654 538 683 514 q 603 581 628 560 q 560 625 579 603 q 528 671 540 647 q 517 722 517 694 q 553 809 517 775 q 640 843 589 843 q 724 808 693 843 q 765 725 754 774 q 771 721 767 721 q 776 725 775 721 q 793 865 788 797 q 789 871 793 868 q 689 885 743 885 q 604 874 650 885 q 519 842 558 864 q 453 787 479 821 q 426 706 426 753 q 440 643 426 674 q 477 583 454 613 q 528 524 500 553 q 588 468 557 496 q 642 415 615 442 q 688 363 668 389 q 721 310 708 336 q 733 258 733 285 q 719 208 733 231 q 685 169 706 185 q 638 144 664 153 q 586 136 611 136 q 533 144 558 136 q 488 167 508 151 q 456 206 468 183 q 444 257 444 228 l 444 278 q 439 282 444 282 q 433 278 433 282 l 425 244 q 418 213 421 229 q 415 179 415 196 q 427 135 415 153 q 458 107 439 118 q 499 91 476 96 q 543 86 522 86 q 634 102 586 86 q 722 147 682 118 q 788 215 763 175 q 814 304 814 256 m 429 304 q 415 374 429 342 q 379 434 401 406 q 328 488 357 463 q 269 538 299 513 q 219 580 243 558 q 175 624 194 601 q 144 671 156 647 q 132 722 132 694 q 168 809 132 775 q 256 843 204 843 q 339 808 308 843 q 381 725 369 774 q 386 721 382 721 q 392 725 390 721 q 408 865 403 797 q 404 871 408 868 q 304 885 358 885 q 219 874 265 885 q 134 842 174 864 q 68 787 94 821 q 42 706 42 753 q 56 643 42 674 q 92 583 69 613 q 144 524 115 553 q 203 468 172 496 q 257 415 231 442 q 304 363 283 389 q 338 310 325 336 q 350 258 350 285 q 336 208 350 231 q 301 169 322 185 q 253 144 279 153 q 201 136 226 136 q 149 144 174 136 q 103 167 124 151 q 72 206 83 183 q 60 257 60 228 l 60 278 q 54 282 60 282 q 49 278 49 282 l 40 244 q 33 213 36 229 q 31 179 31 196 q 43 135 31 153 q 74 107 56 118 q 115 91 93 96 q 158 86 138 86 q 249 102 201 86 q 338 147 297 118 q 403 215 378 175 q 429 304 429 256 z "},"":{"ha":824,"x_min":31,"x_max":793,"o":"m 578 926 q 564 967 578 947 q 526 986 550 986 q 488 971 503 986 q 472 932 472 956 q 488 893 472 913 q 526 874 503 874 q 563 890 549 874 q 578 926 578 906 m 349 926 q 335 966 349 946 q 299 986 321 986 q 260 971 276 986 q 243 933 243 956 q 259 892 243 913 q 299 872 275 872 q 335 889 321 872 q 349 926 349 906 m 793 107 l 793 118 q 734 135 760 121 q 692 181 708 149 q 551 488 613 331 q 432 800 489 644 q 417 838 425 819 q 403 876 410 857 q 397 881 401 881 q 392 876 393 881 q 342 738 365 807 q 293 600 318 669 q 219 396 257 497 q 142 193 182 294 l 142 194 q 35 114 111 124 q 31 107 31 113 q 36 103 32 101 q 92 108 64 106 q 147 110 119 110 q 203 108 175 110 q 257 103 231 106 l 257 114 q 222 123 240 117 q 204 150 204 129 q 214 199 204 165 q 236 272 224 233 q 262 345 249 310 q 282 399 275 381 l 497 399 q 547 269 521 332 q 596 140 572 206 l 542 114 q 539 107 538 111 q 544 103 540 103 q 608 108 576 106 q 672 111 640 111 q 697 110 685 111 q 719 108 708 110 q 756 106 739 107 q 793 107 774 104 m 476 444 l 297 444 q 345 590 324 519 q 390 733 367 660 l 476 444 z "},"":{"ha":931,"x_min":31,"x_max":900,"o":"m 900 217 q 856 140 889 168 q 774 113 822 113 q 700 128 738 113 q 643 178 663 144 l 643 438 q 697 436 671 433 q 751 439 724 439 q 805 429 788 439 q 830 407 822 419 q 840 381 838 394 q 850 363 843 368 q 854 432 850 399 q 863 500 858 465 q 832 483 851 493 q 800 474 813 474 l 643 474 l 643 818 q 693 818 668 815 q 743 821 718 821 q 821 803 789 821 q 851 732 853 785 q 865 753 860 736 q 872 792 869 771 q 875 834 874 814 q 876 864 876 854 q 810 852 844 853 q 744 851 776 851 q 661 853 703 851 q 578 854 619 854 q 560 844 569 854 q 540 819 550 833 q 523 792 531 806 q 511 771 515 778 q 451 662 483 724 q 381 533 418 600 q 301 397 343 465 q 216 269 260 329 q 125 163 172 210 q 31 89 78 115 l 289 89 q 244 110 265 96 q 222 154 222 125 q 242 219 222 183 q 288 293 263 256 q 339 368 314 331 q 375 438 364 406 l 563 438 l 563 192 q 560 157 563 175 q 552 125 558 139 q 533 102 546 111 q 500 93 521 93 q 674 86 588 90 q 847 82 760 82 q 881 97 871 82 q 894 134 890 113 q 897 178 897 156 q 900 217 896 201 m 560 475 l 393 475 q 474 619 433 547 q 560 763 515 692 l 560 475 z "},"":{"ha":856,"x_min":31,"x_max":825,"o":"m 600 940 q 586 981 600 961 q 549 1000 572 1000 q 510 985 526 1000 q 493 946 493 969 q 509 906 493 925 q 549 888 525 888 q 585 903 571 888 q 600 940 600 918 m 369 940 q 356 980 369 960 q 321 1000 343 1000 q 282 985 299 1000 q 265 947 265 969 q 281 906 265 925 q 321 886 297 886 q 356 902 343 886 q 369 940 369 918 m 825 460 q 792 629 825 549 q 703 769 760 710 q 569 860 646 828 q 404 886 493 893 l 386 885 q 219 831 288 864 q 110 748 151 799 q 49 624 68 697 q 31 450 31 551 q 69 318 31 383 q 165 201 107 253 q 294 118 224 150 q 429 86 364 86 q 580 114 508 86 q 706 192 651 142 q 792 310 760 242 q 825 460 825 379 m 732 461 q 713 335 732 394 q 658 230 694 275 q 567 158 621 185 q 442 131 513 131 q 308 165 367 131 q 209 253 250 199 q 147 376 168 308 q 126 514 126 444 q 147 640 126 581 q 204 744 167 699 q 297 815 242 789 q 422 840 351 840 q 555 807 497 840 q 652 719 613 774 q 712 597 692 665 q 732 461 732 529 z "},"":{"ha":953,"x_min":31,"x_max":922,"o":"m 922 435 q 884 606 922 525 q 779 749 846 688 l 840 808 l 818 831 l 756 768 q 633 837 700 813 q 494 861 565 861 q 325 835 408 861 q 176 758 242 808 q 71 635 111 708 q 31 468 31 561 q 67 310 31 385 q 167 179 104 235 l 108 122 l 131 100 l 190 160 q 319 89 249 114 q 465 64 390 64 q 628 88 547 64 q 775 158 710 111 q 881 274 840 206 q 922 435 922 343 m 713 725 l 215 228 q 148 350 171 283 q 125 488 125 417 q 151 626 125 564 q 222 731 176 688 q 331 799 268 775 q 469 822 394 822 q 601 798 538 822 q 713 725 664 774 m 829 438 q 805 300 829 363 q 736 192 781 238 q 629 123 692 147 q 492 99 567 99 q 353 126 419 99 q 236 206 286 153 l 735 703 q 806 579 782 649 q 829 438 829 510 z "},"":{"ha":815,"x_min":31,"x_max":785,"o":"m 592 940 q 578 981 592 961 q 542 1000 565 1000 q 503 985 519 1000 q 486 946 486 969 q 502 906 486 925 q 542 888 518 888 q 578 903 564 888 q 592 940 592 918 m 363 940 q 349 980 363 960 q 314 1000 336 1000 q 275 985 292 1000 q 258 947 258 969 q 274 906 258 925 q 314 886 290 886 q 349 902 336 886 q 363 940 363 918 m 785 847 l 783 858 q 733 859 758 860 q 685 858 708 858 q 662 858 674 858 q 639 857 650 857 q 563 861 601 857 q 558 856 558 861 q 561 850 557 851 q 621 824 600 843 q 642 765 642 806 l 644 346 q 628 258 644 297 q 583 192 613 219 q 514 149 554 164 q 426 133 474 133 q 341 149 381 133 q 272 191 301 164 q 227 256 243 218 q 211 342 211 294 l 214 767 q 237 813 214 792 q 282 846 260 835 q 285 853 286 849 q 279 857 283 857 q 236 856 257 856 q 193 856 215 856 q 36 860 115 856 q 31 855 32 860 q 35 849 31 850 q 94 822 72 839 q 115 765 115 806 l 115 625 q 115 561 115 596 q 114 490 114 526 q 115 429 114 460 q 116 373 115 399 q 119 327 117 347 q 125 297 121 307 q 172 213 140 251 q 243 144 203 174 q 330 99 283 115 q 425 83 376 83 q 545 108 492 83 q 636 174 599 132 q 694 274 674 217 q 715 394 715 331 l 715 767 q 735 819 715 796 q 785 847 754 842 z "},"":{"ha":308,"x_min":0,"x_max":0,"o":""}}}
